<svg width="16" height="16" viewBox="0 0 16 16" fill="none" xmlns="http://www.w3.org/2000/svg">
<g clip-path="url(#clip0_228_3464)">
<path d="M0 5.33154H5.33123V10.6685H0V5.33154Z" fill="white"/>
<path d="M13.3327 10.6682C13.683 10.6682 14.0298 10.5992 14.3534 10.465C14.677 10.3308 14.971 10.1341 15.2187 9.88619C15.4664 9.63825 15.6628 9.34391 15.7969 9.01996C15.9309 8.69602 15.9999 8.34881 15.9999 7.99818C15.9999 7.64754 15.9309 7.30034 15.7969 6.97639C15.6628 6.65245 15.4664 6.3581 15.2187 6.11017C14.971 5.86223 14.677 5.66555 14.3534 5.53137C14.0298 5.39719 13.683 5.32812 13.3327 5.32812C12.9825 5.32812 12.6356 5.39719 12.312 5.53137C11.9884 5.66555 11.6944 5.86223 11.4467 6.11017C11.1991 6.3581 11.0026 6.65245 10.8686 6.97639C10.7345 7.30034 10.6655 7.64754 10.6655 7.99818C10.6655 8.34881 10.7345 8.69602 10.8686 9.01996C11.0026 9.34391 11.1991 9.63825 11.4467 9.88619C11.6944 10.1341 11.9884 10.3308 12.312 10.465C12.6356 10.5992 12.9825 10.6682 13.3327 10.6682Z" fill="white"/>
<path d="M10.6654 10.6685H5.33105V16.0086H10.6654V10.6685Z" fill="white"/>
<path d="M10.6654 -0.00878906H5.33105V5.33132H10.6654V-0.00878906Z" fill="white"/>
</g>
<defs>
<clipPath id="clip0_228_3464">
<rect width="16" height="16" fill="white"/>
</clipPath>
</defs>
</svg>
