<svg width="24" height="25" viewBox="0 0 24 25" fill="none" xmlns="http://www.w3.org/2000/svg">
<path d="M14.1755 4.44295C14.1766 3.21516 11.6731 2.2207 8.58832 2.2207C5.50357 2.2207 3.00224 3.21627 3 4.44295M3 4.44295C3 5.67074 5.50133 6.66519 8.58832 6.66519C11.6753 6.66519 14.1766 5.67074 14.1766 4.44295L14.1766 13.0652M3 4.44295V17.7763C3.00112 19.0041 5.50245 19.9986 8.58832 19.9986C10.0849 19.9986 11.4361 19.7619 12.4387 19.3808M3.00112 8.88742C3.00112 10.1152 5.50245 11.1097 8.58944 11.1097C11.6764 11.1097 14.1778 10.1152 14.1778 8.88742M12.5057 14.9153C11.4976 15.3098 10.115 15.5542 8.58832 15.5542C5.50245 15.5542 3.00112 14.5598 3.00112 13.332M20.5272 13.6853C22.4909 15.6376 22.4909 18.8043 20.5272 20.7565C18.5635 22.7088 15.3781 22.7088 13.4144 20.7565C11.4507 18.8043 11.4507 15.6376 13.4144 13.6853C15.3781 11.7331 18.5635 11.7331 20.5272 13.6853Z" stroke="#EBE8E9" stroke-width="2" stroke-linecap="round" stroke-linejoin="round"/>
</svg>
