<svg width="24" height="25" viewBox="0 0 24 25" fill="none" xmlns="http://www.w3.org/2000/svg">
<path fill-rule="evenodd" clip-rule="evenodd" d="M6.416 4.9877C5.71318 4.9877 5.03914 5.2669 4.54217 5.76387C4.0452 6.26084 3.766 6.93488 3.766 7.6377V16.4697C3.766 17.1725 4.0452 17.8466 4.54217 18.3435C5.03914 18.8405 5.71318 19.1197 6.416 19.1197H7.877V4.9877H6.416ZM6.416 3.2207C5.2448 3.2207 4.12158 3.68596 3.29342 4.51412C2.46526 5.34228 2 6.46551 2 7.6367V16.4697C1.99987 17.0497 2.114 17.6241 2.33586 18.1599C2.55773 18.6958 2.88299 19.1828 3.29306 19.5929C3.70314 20.0031 4.19 20.3285 4.72584 20.5505C5.26168 20.7724 5.836 20.8867 6.416 20.8867H17.584C18.1641 20.8867 18.7385 20.7724 19.2744 20.5504C19.8103 20.3283 20.2972 20.0029 20.7073 19.5926C21.1174 19.1823 21.4426 18.6953 21.6644 18.1592C21.8862 17.6232 22.0003 17.0488 22 16.4687V7.6367C22 6.46551 21.5347 5.34228 20.7066 4.51412C19.8784 3.68596 18.7552 3.2207 17.584 3.2207H6.416ZM9.644 4.9877V19.1197H17.584C18.2868 19.1197 18.9609 18.8405 19.4578 18.3435C19.9548 17.8466 20.234 17.1725 20.234 16.4697V7.6367C20.234 6.93388 19.9548 6.25984 19.4578 5.76287C18.9609 5.2659 18.2868 4.9867 17.584 4.9867H9.644V4.9877Z" fill="#EBE8E9"/>
</svg>
