<svg width="180" height="41" viewBox="0 0 180 41" fill="none" xmlns="http://www.w3.org/2000/svg">
<g clip-path="url(#clip0_76_1042)">
<path d="M26.7833 5.68102C23.0261 2.04143 18.2137 0.220703 12.3519 0.220703H0.546143V40.006H12.5872C18.8431 40.006 23.7133 38.0788 27.196 34.2207C30.6787 30.3645 32.421 25.5634 32.421 19.8173C32.421 14.0713 30.5424 9.32061 26.7833 5.67915V5.68102ZM11.351 36.6521C8.05688 36.6521 5.38648 35.0984 5.38648 33.1824C5.38648 31.2665 8.05688 29.7128 11.351 29.7128C14.6451 29.7128 17.3155 31.2665 17.3155 33.1824C17.3155 35.0984 14.6451 36.6521 11.351 36.6521ZM11.351 10.5139C8.05688 10.5139 5.38648 8.9602 5.38648 7.04423C5.38648 5.12827 8.05688 3.57458 11.351 3.57458C14.6451 3.57458 17.3155 5.12827 17.3155 7.04423C17.3155 8.9602 14.6451 10.5139 11.351 10.5139ZM25.6741 28.3832C24.027 31.2366 21.3473 32.7716 19.6871 31.8136C18.0289 30.8556 18.0177 27.7669 19.6647 24.9135C21.3118 22.0601 23.9915 20.5251 25.6517 21.4831C27.3118 22.4411 27.3211 25.5298 25.6741 28.3832ZM25.6535 18.7454C23.9934 19.7034 21.3137 18.1665 19.6666 15.315C18.0195 12.4616 18.0289 9.3729 19.689 8.41491C21.3491 7.45693 24.0289 8.99381 25.6759 11.8454C27.323 14.6988 27.3137 17.7875 25.6535 18.7454Z" fill="#EF2B70"/>
<path d="M51.8347 11.201C59.9019 11.201 65.9523 17.1954 65.9523 25.7109C65.9523 34.2263 59.9019 40.2207 51.8347 40.2207C43.7675 40.2207 37.717 34.2263 37.717 25.7109C37.717 17.1954 43.7675 11.201 51.8347 11.201ZM51.8347 35.4027C57.1008 35.4027 60.6862 31.7613 60.6862 25.7109C60.6862 19.6604 57.1008 16.019 51.8347 16.019C46.5686 16.019 42.9831 19.6604 42.9831 25.7109C42.9831 31.7613 46.5686 35.4027 51.8347 35.4027Z" fill="#EF2B70"/>
<path d="M76.2043 11.9854V2.46161H81.4704V11.9854H89.5376V16.5793H81.4704V33.2739C81.4704 34.3944 81.9185 34.8426 82.9269 34.8426H87.969V39.4364H80.7981C78.109 39.4364 76.2043 37.5316 76.2043 34.7305V16.5793H68.5852V11.9854H76.2043Z" fill="#EF2B70"/>
<path d="M111.33 0.220703C118.109 0.220703 122.927 4.03023 122.927 10.7529C122.927 15.3468 120.35 18.428 116.428 19.4364V20.1087C120.182 21.1731 123.039 24.2543 123.039 28.8482C123.039 35.4588 118.165 39.4364 111.442 39.4364H95.1399V0.220703H111.33ZM100.742 17.1955H110.938C114.972 17.1955 117.549 14.9546 117.549 11.2011C117.549 7.44759 114.804 5.37476 110.826 5.37476H100.742V17.1955ZM100.742 34.2823H110.938C114.916 34.2823 117.661 32.0414 117.661 28.4C117.661 24.7585 115.084 22.3496 111.05 22.3496H100.742V34.2823Z" fill="#EF2B70"/>
<path d="M141.75 11.201C149.818 11.201 155.868 17.1954 155.868 25.7109C155.868 34.2263 149.818 40.2207 141.75 40.2207C133.683 40.2207 127.633 34.2263 127.633 25.7109C127.633 17.1954 133.683 11.201 141.75 11.201ZM141.75 35.4027C147.017 35.4027 150.602 31.7613 150.602 25.7109C150.602 19.6604 147.017 16.019 141.75 16.019C136.484 16.019 132.899 19.6604 132.899 25.7109C132.899 31.7613 136.484 35.4027 141.75 35.4027Z" fill="#EF2B70"/>
<path d="M166.121 11.9854V2.46161H171.387V11.9854H179.454V16.5793H171.387V33.2739C171.387 34.3944 171.835 34.8426 172.843 34.8426H177.885V39.4364H170.714C168.025 39.4364 166.121 37.5316 166.121 34.7305V16.5793H158.501V11.9854H166.121Z" fill="#EF2B70"/>
</g>
<defs>
<clipPath id="clip0_76_1042">
<rect width="178.908" height="40" fill="white" transform="translate(0.546143 0.220703)"/>
</clipPath>
</defs>
</svg>
