<svg width="512" height="512" viewBox="0 0 512 512" fill="none" xmlns="http://www.w3.org/2000/svg">
<g clip-path="url(#clip0_216_3328)">
<path d="M375.293 88.8418C331.776 46.6874 276.039 25.5994 208.146 25.5994H71.4097V486.399H210.872C283.328 486.399 339.736 464.079 380.073 419.394C420.411 374.73 440.59 319.123 440.59 252.571C440.59 186.02 418.832 130.996 375.293 88.8201V88.8418ZM196.553 447.554C158.4 447.554 127.471 429.559 127.471 407.368C127.471 385.177 158.4 367.182 196.553 367.182C234.707 367.182 265.636 385.177 265.636 407.368C265.636 429.559 234.707 447.554 196.553 447.554ZM196.553 144.817C158.4 144.817 127.471 126.822 127.471 104.631C127.471 82.4397 158.4 64.4446 196.553 64.4446C234.707 64.4446 265.636 82.4397 265.636 104.631C265.636 126.822 234.707 144.817 196.553 144.817ZM362.446 351.782C343.369 384.831 312.332 402.61 293.104 391.514C273.898 380.419 273.768 344.645 292.845 311.596C311.921 278.547 342.958 260.769 362.186 271.864C381.414 282.96 381.522 318.734 362.446 351.782ZM362.208 240.156C342.98 251.252 311.943 233.451 292.866 200.424C273.79 167.376 273.898 131.602 293.126 120.506C312.354 109.411 343.391 127.211 362.467 160.238C381.544 193.287 381.436 229.061 362.208 240.156Z" fill="white"/>
</g>
<defs>
<clipPath id="clip0_216_3328">
<rect width="369.181" height="460.8" fill="white" transform="translate(71.4097 25.5994)"/>
</clipPath>
</defs>
</svg>
