<svg width="24" height="25" viewBox="0 0 24 25" fill="none" xmlns="http://www.w3.org/2000/svg">
<g clip-path="url(#clip0_76_890)">
<path d="M17.5922 5.03949C15.5523 3.0635 12.9397 2.075 9.75719 2.075H3.34766V23.675H9.88494C13.2813 23.675 15.9254 22.6287 17.8163 20.5341C19.7071 18.4405 20.653 15.8339 20.653 12.7143C20.653 9.5947 19.6331 7.01547 17.5922 5.03847V5.03949ZM9.21377 21.8541C7.42535 21.8541 5.97555 21.0106 5.97555 19.9704C5.97555 18.9302 7.42535 18.0867 9.21377 18.0867C11.0022 18.0867 12.452 18.9302 12.452 19.9704C12.452 21.0106 11.0022 21.8541 9.21377 21.8541ZM9.21377 7.66332C7.42535 7.66332 5.97555 6.8198 5.97555 5.7796C5.97555 4.73939 7.42535 3.89587 9.21377 3.89587C11.0022 3.89587 12.452 4.73939 12.452 5.7796C12.452 6.8198 11.0022 7.66332 9.21377 7.66332ZM16.99 17.3648C16.0958 18.914 14.6409 19.7474 13.7396 19.2273C12.8393 18.7072 12.8332 17.0303 13.7274 15.4811C14.6216 13.9319 16.0765 13.0986 16.9778 13.6187C17.8791 14.1388 17.8842 15.8157 16.99 17.3648ZM16.9788 12.1324C16.0775 12.6525 14.6226 11.8181 13.7284 10.2699C12.8342 8.72077 12.8393 7.04386 13.7406 6.52376C14.6419 6.00366 16.0968 6.83805 16.991 8.3862C17.8852 9.93535 17.8801 11.6123 16.9788 12.1324Z" fill="#EF2B70"/>
</g>
<defs>
<clipPath id="clip0_76_890">
<rect width="17.3053" height="21.6" fill="white" transform="translate(3.34766 2.075)"/>
</clipPath>
</defs>
</svg>
