<svg width="36" height="37" viewBox="0 0 36 37" fill="none" xmlns="http://www.w3.org/2000/svg">
<rect y="0.220703" width="36" height="36" rx="12" fill="#FDEAF1"/>
<g clip-path="url(#clip0_76_628)">
<path d="M23.592 10.3851C21.5521 8.40915 18.9394 7.42065 15.7569 7.42065H9.34741V29.0207H15.8847C19.2811 29.0207 21.9252 27.9744 23.816 25.8798C25.7068 23.7862 26.6528 21.1796 26.6528 18.06C26.6528 14.9404 25.6328 12.3611 23.592 10.3841V10.3851ZM15.2135 27.1998C13.4251 27.1998 11.9753 26.3563 11.9753 25.3161C11.9753 24.2759 13.4251 23.4323 15.2135 23.4323C17.002 23.4323 18.4518 24.2759 18.4518 25.3161C18.4518 26.3563 17.002 27.1998 15.2135 27.1998ZM15.2135 13.009C13.4251 13.009 11.9753 12.1655 11.9753 11.1252C11.9753 10.085 13.4251 9.24152 15.2135 9.24152C17.002 9.24152 18.4518 10.085 18.4518 11.1252C18.4518 12.1655 17.002 13.009 15.2135 13.009ZM22.9897 22.7105C22.0955 24.2596 20.6406 25.093 19.7393 24.5729C18.839 24.0528 18.833 22.3759 19.7272 20.8267C20.6214 19.2776 22.0763 18.4442 22.9776 18.9643C23.8789 19.4844 23.8839 21.1613 22.9897 22.7105ZM22.9786 17.478C22.0773 17.9981 20.6224 17.1637 19.7282 15.6156C18.834 14.0664 18.839 12.3895 19.7404 11.8694C20.6417 11.3493 22.0965 12.1837 22.9907 13.7318C23.885 15.281 23.8799 16.9579 22.9786 17.478Z" fill="#EF2B70"/>
</g>
<defs>
<clipPath id="clip0_76_628">
<rect width="17.3053" height="21.6" fill="white" transform="translate(9.34741 7.42065)"/>
</clipPath>
</defs>
</svg>
