<svg width="24" height="25" viewBox="0 0 24 25" fill="none" xmlns="http://www.w3.org/2000/svg">
<path d="M0 8.85938H7.99685V16.8648H0V8.85938Z" fill="black"/>
<path d="M19.9993 16.8647C20.5247 16.8647 21.045 16.7611 21.5304 16.5599C22.0158 16.3586 22.4568 16.0636 22.8283 15.6917C23.1998 15.3198 23.4945 14.8782 23.6956 14.3923C23.8966 13.9064 24.0001 13.3856 24.0001 12.8596C24.0001 12.3337 23.8966 11.8129 23.6956 11.327C23.4945 10.841 23.1998 10.3995 22.8283 10.0276C22.4568 9.65571 22.0158 9.3607 21.5304 9.15942C21.045 8.95815 20.5247 8.85455 19.9993 8.85455C19.4739 8.85455 18.9537 8.95815 18.4683 9.15942C17.9829 9.3607 17.5418 9.65571 17.1703 10.0276C16.7988 10.3995 16.5041 10.841 16.3031 11.327C16.102 11.8129 15.9985 12.3337 15.9985 12.8596C15.9985 13.3856 16.102 13.9064 16.3031 14.3923C16.5041 14.8782 16.7988 15.3198 17.1703 15.6917C17.5418 16.0636 17.9829 16.3586 18.4683 16.5599C18.9537 16.7611 19.4739 16.8647 19.9993 16.8647Z" fill="black"/>
<path d="M15.9982 16.8648H7.99658V24.875H15.9982V16.8648Z" fill="black"/>
<path d="M15.9982 0.849182H7.99658V8.85935H15.9982V0.849182Z" fill="black"/>
</svg>
