<svg width="24" height="25" viewBox="0 0 24 25" fill="none" xmlns="http://www.w3.org/2000/svg">
<path d="M8.76975 17.9346C8.56936 17.9346 8.39761 17.869 8.2602 17.7432L4.77349 14.4076C4.57311 14.2162 4.51586 13.9319 4.62464 13.6694C4.72769 13.4233 4.99105 13.2593 5.28304 13.2593H18.7203C19.1096 13.2593 19.4302 13.5655 19.4302 13.9373C19.4302 14.1123 19.3615 14.2818 19.2299 14.4076C19.0982 14.5334 18.9264 14.6045 18.7489 14.6045H6.98918L9.27358 16.7863C9.54839 17.0488 9.54839 17.4808 9.27358 17.7432C9.13617 17.869 8.95868 17.9346 8.76402 17.9346H8.76975ZM5.27732 11.1868C4.888 11.1868 4.56738 10.8806 4.56738 10.5088C4.56738 10.1369 4.88227 9.84165 5.26587 9.84165H17.0142L14.7298 7.65984C14.455 7.39736 14.455 6.96537 14.7298 6.7029C14.8615 6.57713 15.0389 6.50604 15.2336 6.50604C15.4283 6.50604 15.6 6.57713 15.7374 6.7029L19.2299 10.0385C19.4303 10.2299 19.4875 10.5142 19.3787 10.7767C19.2757 11.0228 19.0123 11.1868 18.7203 11.1868H5.27732Z" fill="#EBE8E9" stroke="black" stroke-width="0.109091"/>
<circle cx="12" cy="12.2207" r="11.1818" stroke="#EBE8E9" stroke-width="1.63636"/>
</svg>
