<svg width="36" height="37" viewBox="0 0 36 37" fill="none" xmlns="http://www.w3.org/2000/svg">
<g clip-path="url(#clip0_76_1037)">
<path d="M18 21.2207C19.6569 21.2207 21 19.8776 21 18.2207C21 16.5638 19.6569 15.2207 18 15.2207C16.3431 15.2207 15 16.5638 15 18.2207C15 19.8776 16.3431 21.2207 18 21.2207Z" stroke="#F9F8F8" stroke-width="2" stroke-linecap="round" stroke-linejoin="round"/>
<path d="M25.4 21.2207C25.2669 21.5223 25.2272 21.8569 25.286 22.1813C25.3448 22.5057 25.4995 22.805 25.73 23.0407L25.79 23.1007C25.976 23.2864 26.1235 23.507 26.2241 23.7498C26.3248 23.9926 26.3766 24.2529 26.3766 24.5157C26.3766 24.7785 26.3248 25.0388 26.2241 25.2816C26.1235 25.5244 25.976 25.745 25.79 25.9307C25.6043 26.1167 25.3837 26.2642 25.1409 26.3648C24.8981 26.4655 24.6378 26.5173 24.375 26.5173C24.1122 26.5173 23.8519 26.4655 23.6091 26.3648C23.3663 26.2642 23.1457 26.1167 22.96 25.9307L22.9 25.8707C22.6643 25.6402 22.365 25.4855 22.0406 25.4267C21.7162 25.3679 21.3816 25.4076 21.08 25.5407C20.7842 25.6675 20.532 25.8779 20.3543 26.1462C20.1766 26.4145 20.0813 26.7289 20.08 27.0507V27.2207C20.08 27.7511 19.8693 28.2598 19.4942 28.6349C19.1191 29.01 18.6104 29.2207 18.08 29.2207C17.5496 29.2207 17.0409 29.01 16.6658 28.6349C16.2907 28.2598 16.08 27.7511 16.08 27.2207V27.1307C16.0723 26.7997 15.9651 26.4787 15.7725 26.2094C15.5799 25.9401 15.3107 25.735 15 25.6207C14.6984 25.4876 14.3638 25.4479 14.0394 25.5067C13.715 25.5655 13.4157 25.7202 13.18 25.9507L13.12 26.0107C12.9343 26.1967 12.7137 26.3442 12.4709 26.4448C12.2281 26.5455 11.9678 26.5973 11.705 26.5973C11.4422 26.5973 11.1819 26.5455 10.9391 26.4448C10.6963 26.3442 10.4757 26.1967 10.29 26.0107C10.104 25.825 9.95653 25.6044 9.85588 25.3616C9.75523 25.1188 9.70343 24.8585 9.70343 24.5957C9.70343 24.3329 9.75523 24.0726 9.85588 23.8298C9.95653 23.587 10.104 23.3664 10.29 23.1807L10.35 23.1207C10.5805 22.885 10.7352 22.5857 10.794 22.2613C10.8528 21.9369 10.8131 21.6023 10.68 21.3007C10.5532 21.0049 10.3428 20.7527 10.0745 20.575C9.80618 20.3973 9.49179 20.302 9.17 20.3007H9C8.46957 20.3007 7.96086 20.09 7.58579 19.7149C7.21071 19.3398 7 18.8311 7 18.3007C7 17.7703 7.21071 17.2616 7.58579 16.8865C7.96086 16.5114 8.46957 16.3007 9 16.3007H9.09C9.42099 16.293 9.742 16.1858 10.0113 15.9932C10.2806 15.8006 10.4857 15.5314 10.6 15.2207C10.7331 14.9191 10.7728 14.5845 10.714 14.2601C10.6552 13.9357 10.5005 13.6364 10.27 13.4007L10.21 13.3407C10.024 13.155 9.87653 12.9344 9.77588 12.6916C9.67523 12.4488 9.62343 12.1885 9.62343 11.9257C9.62343 11.6629 9.67523 11.4026 9.77588 11.1598C9.87653 10.917 10.024 10.6964 10.21 10.5107C10.3957 10.3248 10.6163 10.1772 10.8591 10.0766C11.1019 9.97594 11.3622 9.92413 11.625 9.92413C11.8878 9.92413 12.1481 9.97594 12.3909 10.0766C12.6337 10.1772 12.8543 10.3248 13.04 10.5107L13.1 10.5707C13.3357 10.8012 13.635 10.9559 13.9594 11.0147C14.2838 11.0735 14.6184 11.0338 14.92 10.9007H15C15.2958 10.7739 15.548 10.5635 15.7257 10.2952C15.9034 10.0269 15.9987 9.71249 16 9.3907V9.2207C16 8.69027 16.2107 8.18156 16.5858 7.80649C16.9609 7.43142 17.4696 7.2207 18 7.2207C18.5304 7.2207 19.0391 7.43142 19.4142 7.80649C19.7893 8.18156 20 8.69027 20 9.2207V9.3107C20.0013 9.63249 20.0966 9.94688 20.2743 10.2152C20.452 10.4835 20.7042 10.6939 21 10.8207C21.3016 10.9538 21.6362 10.9935 21.9606 10.9347C22.285 10.8759 22.5843 10.7212 22.82 10.4907L22.88 10.4307C23.0657 10.2448 23.2863 10.0972 23.5291 9.99658C23.7719 9.89594 24.0322 9.84413 24.295 9.84413C24.5578 9.84413 24.8181 9.89594 25.0609 9.99658C25.3037 10.0972 25.5243 10.2448 25.71 10.4307C25.896 10.6164 26.0435 10.837 26.1441 11.0798C26.2448 11.3226 26.2966 11.5829 26.2966 11.8457C26.2966 12.1085 26.2448 12.3688 26.1441 12.6116C26.0435 12.8544 25.896 13.075 25.71 13.2607L25.65 13.3207C25.4195 13.5564 25.2648 13.8557 25.206 14.1801C25.1472 14.5045 25.1869 14.8391 25.32 15.1407V15.2207C25.4468 15.5165 25.6572 15.7687 25.9255 15.9464C26.1938 16.1241 26.5082 16.2194 26.83 16.2207H27C27.5304 16.2207 28.0391 16.4314 28.4142 16.8065C28.7893 17.1816 29 17.6903 29 18.2207C29 18.7511 28.7893 19.2598 28.4142 19.6349C28.0391 20.01 27.5304 20.2207 27 20.2207H26.91C26.5882 20.222 26.2738 20.3173 26.0055 20.495C25.7372 20.6727 25.5268 20.9249 25.4 21.2207Z" stroke="#F9F8F8" stroke-width="2" stroke-linecap="round" stroke-linejoin="round"/>
</g>
<defs>
<clipPath id="clip0_76_1037">
<rect width="24" height="24" fill="white" transform="translate(6 6.2207)"/>
</clipPath>
</defs>
</svg>
