<svg width="23" height="23" viewBox="0 0 23 23" fill="none" xmlns="http://www.w3.org/2000/svg">
<path d="M10 3.22069H3C2.46957 3.22069 1.96086 3.4314 1.58579 3.80647C1.21071 4.18154 1 4.69025 1 5.22069V19.2207C1 19.7511 1.21071 20.2598 1.58579 20.6349C1.96086 21.01 2.46957 21.2207 3 21.2207H17C17.5304 21.2207 18.0391 21.01 18.4142 20.6349C18.7893 20.2598 19 19.7511 19 19.2207V12.2207M17.5 1.72069C17.8978 1.32286 18.4374 1.09937 19 1.09937C19.5626 1.09937 20.1022 1.32286 20.5 1.72069C20.8978 2.11851 21.1213 2.65808 21.1213 3.22069C21.1213 3.78329 20.8978 4.32286 20.5 4.72069L11 14.2207L7 15.2207L8 11.2207L17.5 1.72069Z" stroke="#EBE8E9" stroke-width="2" stroke-linecap="round" stroke-linejoin="round"/>
</svg>
