<svg width="24" height="25" viewBox="0 0 24 25" fill="none" xmlns="http://www.w3.org/2000/svg">
<path d="M12 3.2207C12.2449 3.22074 12.4813 3.31066 12.6644 3.47342C12.8474 3.63618 12.9643 3.86045 12.993 4.1037L13 4.2207V20.2207C12.9997 20.4756 12.9021 20.7207 12.7272 20.9061C12.5522 21.0914 12.313 21.2029 12.0586 21.2179C11.8042 21.2328 11.5536 21.15 11.3582 20.9864C11.1627 20.8228 11.0371 20.5908 11.007 20.3377L11 20.2207V4.2207C11 3.95549 11.1054 3.70113 11.2929 3.5136C11.4804 3.32606 11.7348 3.2207 12 3.2207ZM8 6.2207C8.26522 6.2207 8.51957 6.32606 8.70711 6.5136C8.89464 6.70113 9 6.95549 9 7.2207V17.2207C9 17.4859 8.89464 17.7403 8.70711 17.9278C8.51957 18.1153 8.26522 18.2207 8 18.2207C7.73478 18.2207 7.48043 18.1153 7.29289 17.9278C7.10536 17.7403 7 17.4859 7 17.2207V7.2207C7 6.95549 7.10536 6.70113 7.29289 6.5136C7.48043 6.32606 7.73478 6.2207 8 6.2207ZM16 6.2207C16.2652 6.2207 16.5196 6.32606 16.7071 6.5136C16.8946 6.70113 17 6.95549 17 7.2207V17.2207C17 17.4859 16.8946 17.7403 16.7071 17.9278C16.5196 18.1153 16.2652 18.2207 16 18.2207C15.7348 18.2207 15.4804 18.1153 15.2929 17.9278C15.1054 17.7403 15 17.4859 15 17.2207V7.2207C15 6.95549 15.1054 6.70113 15.2929 6.5136C15.4804 6.32606 15.7348 6.2207 16 6.2207ZM4 9.2207C4.26522 9.2207 4.51957 9.32606 4.70711 9.5136C4.89464 9.70113 5 9.95549 5 10.2207V14.2207C5 14.4859 4.89464 14.7403 4.70711 14.9278C4.51957 15.1153 4.26522 15.2207 4 15.2207C3.73478 15.2207 3.48043 15.1153 3.29289 14.9278C3.10536 14.7403 3 14.4859 3 14.2207V10.2207C3 9.95549 3.10536 9.70113 3.29289 9.5136C3.48043 9.32606 3.73478 9.2207 4 9.2207ZM20 9.2207C20.2449 9.22074 20.4813 9.31066 20.6644 9.47342C20.8474 9.63618 20.9643 9.86045 20.993 10.1037L21 10.2207V14.2207C20.9997 14.4756 20.9021 14.7207 20.7272 14.9061C20.5522 15.0914 20.313 15.2029 20.0586 15.2179C19.8042 15.2328 19.5536 15.15 19.3582 14.9864C19.1627 14.8228 19.0371 14.5908 19.007 14.3377L19 14.2207V10.2207C19 9.95549 19.1054 9.70113 19.2929 9.5136C19.4804 9.32606 19.7348 9.2207 20 9.2207Z" fill="#EF2B70"/>
</svg>
