<?xml version="1.0" encoding="UTF-8"?>
<svg version="1.1" xmlns="http://www.w3.org/2000/svg" width="400" height="400">
<path d="M0 0 C132 0 264 0 400 0 C400 132 400 264 400 400 C268 400 136 400 0 400 C0 268 0 136 0 0 Z " fill="#FD266F" transform="translate(0,0)"/>
<path d="M0 0 C2.37897759 1.66362069 4.31797972 3.3823806 6.234375 5.5625 C6.234375 6.2225 6.234375 6.8825 6.234375 7.5625 C6.894375 7.5625 7.554375 7.5625 8.234375 7.5625 C10.63788012 12.46965628 11.98961379 15.99261396 11.234375 21.5625 C7.66876139 31.92919142 1.47339715 36.09068994 -8.015625 40.8125 C-22.81901289 47.2752362 -43.52767771 48.52420784 -58.765625 42.5625 C-66.65496271 38.93569746 -74.89632628 34.73101951 -78.765625 26.5625 C-78.765625 25.5725 -78.765625 24.5825 -78.765625 23.5625 C-79.425625 23.5625 -80.085625 23.5625 -80.765625 23.5625 C-81.30012152 16.31710274 -80.48170048 11.83337737 -76.765625 5.5625 C-76.105625 5.5625 -75.445625 5.5625 -74.765625 5.5625 C-74.765625 4.9025 -74.765625 4.2425 -74.765625 3.5625 C-54.16846466 -12.89901004 -22.33854832 -12.76488476 0 0 Z " fill="#FDFCFD" transform="translate(234.765625,80.4375)"/>
<path d="M0 0 C2.12890625 1.0703125 2.12890625 1.0703125 5.12890625 3.0703125 C5.12890625 3.7303125 5.12890625 4.3903125 5.12890625 5.0703125 C5.72058594 5.34875 6.31226563 5.6271875 6.921875 5.9140625 C18.82241483 12.1486816 24.84950174 25.35194435 30.12890625 37.0703125 C30.49371094 37.87855469 30.85851562 38.68679687 31.234375 39.51953125 C33.32067088 45.13196102 33.42727622 50.7720947 33.50390625 56.6953125 C33.51800537 57.49541748 33.53210449 58.29552246 33.54663086 59.11987305 C33.49372885 65.60539135 32.48299171 71.30331286 28.19140625 76.34765625 C27.51078125 76.89550781 26.83015625 77.44335938 26.12890625 78.0078125 C25.44828125 78.57371094 24.76765625 79.13960938 24.06640625 79.72265625 C19.81970837 82.67650861 15.10287051 82.82991938 10.12890625 82.0703125 C-8.00382114 75.32773127 -19.38025152 61.15948452 -27.2421875 44.05859375 C-31.88846492 33.196244 -34.25396837 20.08928232 -30.30859375 8.6953125 C-28.18470615 3.98483322 -25.23640529 0.81509075 -20.87109375 -1.9296875 C-13.50614973 -4.38466884 -6.96805523 -3.01986342 0 0 Z " fill="#FDFAFD" transform="translate(111.87109375,211.9296875)"/>
<path d="M0 0 C6.00465243 6.00465243 7.43560345 11.93740263 7.5 20.25 C7.49813481 38.37402749 -0.80045803 56.19464448 -13.4375 69.0625 C-21.54428541 76.69241568 -30.3920826 82.55741879 -41.82421875 82.25 C-46.20693453 81.74642045 -49.01344214 79.95754145 -52.125 76.9375 C-58.35471421 67.1776144 -59.41886132 57.90128397 -57.375 46.51953125 C-54.15071329 33.78071993 -47.72306276 21.82344911 -39 12 C-38.45859375 11.37738281 -37.9171875 10.75476563 -37.359375 10.11328125 C-27.80172943 -0.18128559 -13.29999742 -7.67307543 0 0 Z " fill="#FDFCFD" transform="translate(312,212)"/>
<path d="M0 0 C0.56847656 0.4021875 1.13695312 0.804375 1.72265625 1.21875 C6.1870325 4.64107283 9.22348085 8.67044254 11 14 C11.79497811 20.4733932 10.39735683 24.23463399 6.828125 29.671875 C1.6395899 36.27949662 -5.17102392 39.41333389 -13 42 C-13.84691406 42.30035156 -14.69382812 42.60070312 -15.56640625 42.91015625 C-32.35316857 48.04408783 -51.41097856 45.98114072 -67 38.25 C-73.13395753 34.64824252 -78.24949572 29.65444585 -81 23 C-81.99180127 17.47833717 -81.48089028 13.03724499 -78.5 8.25 C-62.32302657 -13.18071013 -21.15353022 -15.45291294 0 0 Z " fill="#FDFAFC" transform="translate(235,284)"/>
<path d="M0 0 C13.20120204 9.16700114 22.44507668 20.80088964 27.86328125 35.98828125 C28.18296875 36.7978125 28.50265625 37.60734375 28.83203125 38.44140625 C32.20019986 47.85980365 32.73325193 60.59764149 28.86328125 69.98828125 C25.97781197 75.00952084 23.5245872 78.2391912 17.86328125 79.98828125 C8.98759619 81.44652966 2.26035334 78.78102943 -5.13671875 73.98828125 C-19.23545263 63.46013844 -30.11607139 46.23712189 -33.73828125 28.92578125 C-35.0934023 18.9350849 -35.05641598 9.05194229 -28.94921875 0.61328125 C-20.14257451 -7.60625337 -9.75874706 -5.78347245 0 0 Z " fill="#FDFAFC" transform="translate(288.13671875,112.01171875)"/>
<path d="M0 0 C4.10031781 3.50277427 6.58532169 7.86841031 7.5234375 13.20336914 C7.69849684 15.62951858 7.73123023 18.00548136 7.6875 20.4375 C7.67106445 21.74473022 7.67106445 21.74473022 7.65429688 23.07836914 C7.0469031 41.56844807 -1.7171332 57.14041342 -14.875 69.9375 C-23.60018678 77.95220728 -30.27356581 82.65574903 -42.32421875 82.2890625 C-47.22559259 81.61352859 -49.83956196 79.03046237 -53.125 75.5625 C-58.7124866 67.1812701 -58.14212973 55.31149106 -56.48828125 45.68701172 C-53.23750069 31.51685926 -45.91577491 20.26464282 -35.875 9.9375 C-35.26527344 9.26589844 -34.65554687 8.59429687 -34.02734375 7.90234375 C-25.68677135 -1.04619749 -11.36843138 -7.22114954 0 0 Z " fill="#FDFBFD" transform="translate(137.875,110.0625)"/>
<path d="M0 0 C0.33 0 0.66 0 1 0 C1 1.98 1 3.96 1 6 C0.34 6.33 -0.32 6.66 -1 7 C-1.309375 7.99 -1.61875 8.98 -1.9375 10 C-2.4634375 11.485 -2.4634375 11.485 -3 13 C-3.99 13.33 -4.98 13.66 -6 14 C-7.22969878 17.51190809 -7.22969878 17.51190809 -8 21 C-8.66 21 -9.32 21 -10 21 C-10 21.66 -10 22.32 -10 23 C-10.66 23 -11.32 23 -12 23 C-12.226875 24.093125 -12.45375 25.18625 -12.6875 26.3125 C-14.2032785 30.57111578 -15.1573604 30.98261421 -19 33 C-19.33 33.70125 -19.66 34.4025 -20 35.125 C-21 37 -21 37 -23.25 37.8125 C-26.33061724 38.02254208 -28.98537143 37.63096877 -32 37 C-29.56711765 35.04161598 -27.12934282 33.09807783 -24.640625 31.2109375 C-14.01091865 23.04760092 -4.32921112 12.98763335 0 0 Z " fill="#F22D71" transform="translate(140,154)"/>
<path d="M0 0 C-2.57940917 1.28970458 -4.12863207 1.26710399 -7 1 C-7.721875 0.525625 -8.44375 0.05125 -9.1875 -0.4375 C-12.77246105 -2.42914503 -15.84506058 -2.53771086 -19.890625 -2.7890625 C-22 -3 -22 -3 -23 -4 C-33.18170566 -4.51771385 -43.27078337 -2.96106593 -53 0 C-54.32 0 -55.64 0 -57 0 C-57 0.66 -57 1.32 -57 2 C-58.65 2 -60.3 2 -62 2 C-59.46531894 -1.05909783 -56.86503364 -1.94050057 -53.125 -3.125 C-52.09632813 -3.45757812 -51.06765625 -3.79015625 -50.0078125 -4.1328125 C-34.66267941 -8.55699373 -14.18812579 -7.83523365 0 0 Z " fill="#FDCEE4" transform="translate(230,78)"/>
<path d="M0 0 C-14.23811681 7.11905841 -33.7625514 7.09208898 -48.8828125 2.8515625 C-51 2 -51 2 -53 0 C-45.25 -0.125 -45.25 -0.125 -43 1 C-35.35026807 2.25097903 -27.60061078 2.12089124 -19.875 2.0625 C-18.72773438 2.05798828 -17.58046875 2.05347656 -16.3984375 2.04882812 C-13.59890187 2.03716339 -10.79948014 2.02079614 -8 2 C-8 1.34 -8 0.68 -8 0 C-4.94736336 -0.98120464 -3.05263664 -0.98120464 0 0 Z " fill="#FCC8DF" transform="translate(227,121)"/>
<path d="M0 0 C2.64881915 2.44506383 4.81688487 5.03877803 6.9375 7.9375 C9.38922297 11.2639583 11.99540691 14.1494886 15 17 C16.66666667 18.66666667 18.33333333 20.33333333 20 22 C18.5629191 22.05422947 17.12524538 22.09289723 15.6875 22.125 C14.48673828 22.15980469 14.48673828 22.15980469 13.26171875 22.1953125 C11 22 11 22 8 20 C8 19.01 8 18.02 8 17 C8.66 17 9.32 17 10 17 C10 16.01 10 15.02 10 14 C8.68 14.99 7.36 15.98 6 17 C6.33 15.35 6.66 13.7 7 12 C5.68 12 4.36 12 3 12 C2.49166409 10.75336669 1.99368855 9.50250613 1.5 8.25 C1.2215625 7.55390625 0.943125 6.8578125 0.65625 6.140625 C0 4 0 4 0 0 Z " fill="#E7427C" transform="translate(90,266)"/>
<path d="M0 0 C3.40734006 0.52420616 6.72323965 1.18169129 10.0625 2.0234375 C15.25498938 3.18319742 20.25967896 3.2960781 25.5625 3.25 C26.90344727 3.26160156 26.90344727 3.26160156 28.27148438 3.2734375 C33.87503498 3.25704086 38.60475201 2.47622421 44 1 C45.32 1 46.64 1 48 1 C47.67 1.99 47.34 2.98 47 4 C44.03 4 41.06 4 38 4 C38 4.66 38 5.32 38 6 C34.18751574 6.02887236 30.3750593 6.04675492 26.5625 6.0625 C25.47388672 6.07087891 24.38527344 6.07925781 23.26367188 6.08789062 C22.22919922 6.09111328 21.19472656 6.09433594 20.12890625 6.09765625 C19.17056885 6.10289307 18.21223145 6.10812988 17.22485352 6.11352539 C15 6 15 6 14 5 C12.58659906 4.84230651 11.16874478 4.72365444 9.75 4.625 C5.82593453 4.23697439 3.18433512 3.46529171 0 1 C0 0.67 0 0.34 0 0 Z " fill="#E53472" transform="translate(174,325)"/>
<path d="M0 0 C2.72032286 2.72032286 2.46007896 4.58044523 2.75 8.375 C2.84796875 9.51710938 2.9459375 10.65921875 3.046875 11.8359375 C3.00095986 14.93520922 2.64584134 16.42995545 1 19 C-0.32 19 -1.64 19 -3 19 C-3 20.32 -3 21.64 -3 23 C-3.99 23.33 -4.98 23.66 -6 24 C-7.71567661 27.50294871 -7.71567661 27.50294871 -9 31 C-9.99 31 -10.98 31 -12 31 C-12 30.34 -12 29.68 -12 29 C-12.99 28.34 -13.98 27.68 -15 27 C-14.41992188 26.68289063 -13.83984375 26.36578125 -13.2421875 26.0390625 C-6.86626607 22.23034376 -2.62074044 18.05892923 0 11 C0.43897681 7.26633702 0.38345364 3.73512248 0 0 Z " fill="#E83D79" transform="translate(245,295)"/>
<path d="M0 0 C1.238963 3.71688899 0.26018568 5.07186201 -1.40625 8.4765625 C-5.57823673 12.46449099 -13.93559256 11.12013481 -19.4375 11.0625 C-20.26443359 11.05798828 -21.09136719 11.05347656 -21.94335938 11.04882812 C-23.96227146 11.03715811 -25.98114574 11.01922718 -28 11 C-28 10.01 -28 9.02 -28 8 C-28.99 8 -29.98 8 -31 8 C-31.33 6.68 -31.66 5.36 -32 4 C-31.23816406 4.3609375 -30.47632812 4.721875 -29.69140625 5.09375 C-21.92850161 8.58269591 -15.9803575 10.7239699 -7.75 7.875 C-4.40787689 5.5962797 -2.43291453 3.22003393 0 0 Z " fill="#E63C78" transform="translate(142,284)"/>
<path d="M0 0 C1.4550293 0.01353516 1.4550293 0.01353516 2.93945312 0.02734375 C5.31406407 0.05073893 7.68814776 0.08351824 10.0625 0.125 C10.0625 0.785 10.0625 1.445 10.0625 2.125 C9.10472656 2.15078125 8.14695313 2.1765625 7.16015625 2.203125 C-1.33997867 2.53299707 -9.21570215 3.62147309 -17.43920898 5.84082031 C-22.65288844 7.21987052 -22.65288844 7.21987052 -25.9375 6.125 C-22.84940305 4.36037317 -21.70437864 4.125 -17.9375 4.125 C-17.9375 3.465 -17.9375 2.805 -17.9375 2.125 C-11.8759737 -0.01040594 -6.38873306 -0.11353866 0 0 Z " fill="#E73977" transform="translate(197.9375,272.875)"/>
<path d="M0 0 C0.66 0 1.32 0 2 0 C2 1.32 2 2.64 2 4 C2.66 4 3.32 4 4 4 C4.67364661 6.08108685 5.33866798 8.1649671 6 10.25 C6.37125 11.41015625 6.7425 12.5703125 7.125 13.765625 C8 17 8 17 8 21 C8.66 21 9.32 21 10 21 C10 27.27 10 33.54 10 40 C9.34 40 8.68 40 8 40 C7.67 40.66 7.34 41.32 7 42 C7.05800781 40.741875 7.11601562 39.48375 7.17578125 38.1875 C7.56467027 25.87710937 7.05749622 13.58624432 0 3 C0 2.01 0 1.02 0 0 Z " fill="#E65487" transform="translate(311,136)"/>
<path d="M0 0 C4.57036812 6.85555218 3.9065546 16.03234172 3 24 C-0.34497817 39.34497817 -0.34497817 39.34497817 -5 44 C-5.24042276 39.91281305 -4.42258812 36.82320557 -3 33 C-2.34 33 -1.68 33 -1 33 C-0.93941406 32.37351563 -0.87882812 31.74703125 -0.81640625 31.1015625 C-0.73261719 30.28429687 -0.64882813 29.46703125 -0.5625 28.625 C-0.44068359 27.40683594 -0.44068359 27.40683594 -0.31640625 26.1640625 C0 24 0 24 1 22 C1.49664502 14.66718232 0.70185116 7.29423889 0 0 Z " fill="#FEDAED" transform="translate(316,218)"/>
<path d="M0 0 C0.66 0.33 1.32 0.66 2 1 C2 1.66 2 2.32 2 3 C2.99 3 3.98 3 5 3 C5 2.34 5 1.68 5 1 C6.32 1 7.64 1 9 1 C8.608125 1.680625 8.21625 2.36125 7.8125 3.0625 C6.67935422 7.15925782 8.25735742 9.23589203 10 13 C9.67 13.99 9.34 14.98 9 16 C8.69707031 15.38511719 8.39414063 14.77023438 8.08203125 14.13671875 C4.87999227 7.71939514 4.87999227 7.71939514 -1 4 C-4.31521227 3.20434906 -7.636599 2.55512444 -11 2 C-7.19155753 -0.12232587 -4.36795019 -0.2426639 0 0 Z " fill="#E5427C" transform="translate(135,105)"/>
<path d="M0 0 C1.17071885 3.51215656 0.44139796 5.25563345 -0.50195312 8.73046875 C-1.35972936 12.63923733 -1.28838373 16.51448942 -1.25 20.5 C-1.25773437 21.30308594 -1.26546875 22.10617188 -1.2734375 22.93359375 C-1.25613026 28.27287674 -0.48251467 32.8700286 1 38 C-1.88609864 36.55695068 -2.34519652 34.35224745 -3.38037109 31.42871094 C-4.50483039 27.02125582 -4.39122822 22.64714892 -4.3125 18.125 C-4.31572266 17.17625 -4.31894531 16.2275 -4.32226562 15.25 C-4.2675599 8.2675599 -4.2675599 8.2675599 -2 6 C-1.28591666 4.01643517 -0.61382258 2.01684563 0 0 Z " fill="#E65789" transform="translate(83,147)"/>
<path d="M0 0 C3.62528568 -0.20140476 5.86501708 0.14223235 9 2 C9 2.66 9 3.32 9 4 C8.34 4.66 7.68 5.32 7 6 C8.32 6.66 9.64 7.32 11 8 C11 8.66 11 9.32 11 10 C10.31550781 9.71382812 9.63101563 9.42765625 8.92578125 9.1328125 C5.71638749 7.89019008 2.48089886 6.87299966 -0.8125 5.875 C-2.55466797 5.34519531 -2.55466797 5.34519531 -4.33203125 4.8046875 C-5.21246094 4.53914063 -6.09289062 4.27359375 -7 4 C-7 3.67 -7 3.34 -7 3 C-5.02 3 -3.04 3 -1 3 C-0.67 2.01 -0.34 1.02 0 0 Z " fill="#ED3978" transform="translate(223,70)"/>
<path d="M0 0 C0.66 0 1.32 0 2 0 C2.08845016 3.14565046 2.14086835 6.29097375 2.1875 9.4375 C2.21263672 10.31599609 2.23777344 11.19449219 2.26367188 12.09960938 C2.32964272 18.05897603 1.81811627 23.64039685 -1 29 C-1.99 29.66 -2.98 30.32 -4 31 C-3.69255859 29.90558594 -3.69255859 29.90558594 -3.37890625 28.7890625 C-0.90201647 19.18963323 -0.32140946 9.87502844 0 0 Z " fill="#E05685" transform="translate(145,123)"/>
<path d="M0 0 C0.99 0.33 1.98 0.66 3 1 C2.69320312 1.68449219 2.38640625 2.36898437 2.0703125 3.07421875 C0.87972715 6.32877506 0.35986796 9.38379086 -0.125 12.8125 C-0.29257813 13.97394531 -0.46015625 15.13539062 -0.6328125 16.33203125 C-0.75398437 17.21246094 -0.87515625 18.09289062 -1 19 C-0.34 19 0.32 19 1 19 C1.26554688 19.54269531 1.53109375 20.08539063 1.8046875 20.64453125 C2.15789062 21.35996094 2.51109375 22.07539062 2.875 22.8125 C3.22304687 23.52019531 3.57109375 24.22789063 3.9296875 24.95703125 C5.0656486 27.21246418 5.0656486 27.21246418 7 30 C4.08366224 28.69267618 2.24135944 27.24135944 0 25 C-0.66 25 -1.32 25 -2 25 C-4.0138245 16.85385276 -2.74084642 7.85709308 0 0 Z " fill="#EE437F" transform="translate(155,85)"/>
<path d="M0 0 C1.95825873 -0.02694851 3.91662226 -0.04637218 5.875 -0.0625 C6.96554688 -0.07410156 8.05609375 -0.08570313 9.1796875 -0.09765625 C12 0 12 0 14 1 C15.54023996 1.06950541 17.08334988 1.08452357 18.625 1.0625 C19.44226563 1.05347656 20.25953125 1.04445313 21.1015625 1.03515625 C21.72804687 1.02355469 22.35453125 1.01195312 23 1 C22.67 2.32 22.34 3.64 22 5 C23.32 5 24.64 5 26 5 C26 5.99 26 6.98 26 8 C22.17941933 6.94324364 18.42849564 5.81134545 14.6875 4.5 C9.87518494 2.8654723 4.99738407 1.88680093 0 1 C0 0.67 0 0.34 0 0 Z " fill="#E93A77" transform="translate(208,275)"/>
<path d="M0 0 C0.66 0 1.32 0 2 0 C4.42849096 4.73170263 4.29843202 9.12623822 4.25 14.3125 C4.25773438 15.12912109 4.26546875 15.94574219 4.2734375 16.78710938 C4.25625035 22.17957721 3.50204333 26.82033469 2 32 C1.34 32 0.68 32 0 32 C0.16242188 31.20464844 0.32484375 30.40929687 0.4921875 29.58984375 C1.11076782 25.21695671 1.1456851 20.97187405 1.125 16.5625 C1.12886719 15.74201172 1.13273438 14.92152344 1.13671875 14.07617188 C1.12906121 9.2787237 0.80222082 4.73055612 0 0 Z " fill="#E24D80" transform="translate(143,252)"/>
<path d="M0 0 C0 0.66 0 1.32 0 2 C0.639375 2.103125 1.27875 2.20625 1.9375 2.3125 C2.618125 2.539375 3.29875 2.76625 4 3 C4.33 3.99 4.66 4.98 5 6 C4.34 5.731875 3.68 5.46375 3 5.1875 C2.01 4.795625 1.02 4.40375 0 4 C-0.58136719 3.73574219 -1.16273437 3.47148437 -1.76171875 3.19921875 C-8.63309588 0.25832509 -15.7662093 0.07098915 -23 2 C-23 1.34 -23 0.68 -23 0 C-16.03499132 -4.10089296 -7.35586406 -2.22063821 0 0 Z " fill="#E8447E" transform="translate(112,209)"/>
<path d="M0 0 C2 1 2 1 2 1 Z M-1 1 C1 3 1 3 1 7 C-1.1171875 8.66796875 -1.1171875 8.66796875 -3.875 10.1875 C-5.23238281 10.95126953 -5.23238281 10.95126953 -6.6171875 11.73046875 C-8.06915405 12.50405748 -9.52849835 13.26424917 -11 14 C-11 13.01 -11 12.02 -11 11 C-10.01 11 -9.02 11 -8 11 C-8.33 9.35 -8.66 7.7 -9 6 C-5.04 3.525 -5.04 3.525 -1 1 Z " fill="#EF3474" transform="translate(171,274)"/>
<path d="M0 0 C0.33 0 0.66 0 1 0 C1 1.98 1 3.96 1 6 C0.01 6.495 0.01 6.495 -1 7 C-1.309375 7.99 -1.61875 8.98 -1.9375 10 C-2.288125 10.99 -2.63875 11.98 -3 13 C-3.99 13.33 -4.98 13.66 -6 14 C-7.22969878 17.51190809 -7.22969878 17.51190809 -8 21 C-8.66 21 -9.32 21 -10 21 C-10 21.66 -10 22.32 -10 23 C-11.98 23.66 -13.96 24.32 -16 25 C-15.63648437 24.52691406 -15.27296875 24.05382812 -14.8984375 23.56640625 C-9.18351604 16.04908648 -4.04259958 8.55165295 0 0 Z " fill="#E7447D" transform="translate(140,154)"/>
<path d="M0 0 C0.33 1.32 0.66 2.64 1 4 C-0.3921875 5.1446875 -0.3921875 5.1446875 -1.8125 6.3125 C-3.51600659 7.7149217 -5.00450972 9.00529402 -6.4375 10.6875 C-9.00433145 12.84363842 -11.77011241 13.32002366 -15 14 C-17.22265625 13.546875 -17.22265625 13.546875 -19 13 C-18.29875 12.64808594 -17.5975 12.29617188 -16.875 11.93359375 C-10.48781856 8.6098295 -5.17312459 5.01007482 0 0 Z " fill="#E94D84" transform="translate(299,279)"/>
<path d="M0 0 C0.66 0.33 1.32 0.66 2 1 C-2.09793983 5.23453782 -6.46789108 9.1189278 -10.890625 13.01171875 C-13.05513264 14.82350446 -13.05513264 14.82350446 -14 17 C-14.99 16.67 -15.98 16.34 -17 16 C-11.88273555 9.87172586 -6.66319396 4.44212931 0 0 Z " fill="#FDD2E6" transform="translate(286,213)"/>
<path d="M0 0 C0.33 0 0.66 0 1 0 C0.98839844 1.30453125 0.97679688 2.6090625 0.96484375 3.953125 C0.90722947 13.36225721 0.93457131 22.6394479 2 32 C-2.71829857 23.27709508 -3.53087253 11.74077197 -1 2.25 C-0.67 1.5075 -0.34 0.765 0 0 Z " fill="#FCC0DA" transform="translate(82,220)"/>
<path d="M0 0 C0.97368493 3.11851536 0.98677733 4.04760161 0.0625 7.375 C-2.31827315 16.02352286 -1.71419553 25.51813896 1 34 C0.34 34 -0.32 34 -1 34 C-1 33.34 -1 32.68 -1 32 C-1.66 32 -2.32 32 -3 32 C-3.08765069 27.97930575 -3.14061018 23.9588599 -3.1875 19.9375 C-3.21263672 18.80376953 -3.23777344 17.67003906 -3.26367188 16.50195312 C-3.3188059 10.19829656 -3.07297201 5.55715936 0 0 Z " fill="#DF3C75" transform="translate(256,250)"/>
<path d="M0 0 C1.32 0 2.64 0 4 0 C4 0.66 4 1.32 4 2 C10.37305598 2.74507544 16.58311325 3.10349817 23 3 C18.06255276 6.29163149 13.77432651 6.56166657 8 6 C3.93337338 4.44728802 2.42480398 3.63720598 0 0 Z " fill="#FDCAE0" transform="translate(260,288)"/>
<path d="M0 0 C0.33 0 0.66 0 1 0 C2.50974035 7.09038772 3.28307925 13.75002578 3 21 C3.66 21 4.32 21 5 21 C5.33 23.97 5.66 26.94 6 30 C1.25542876 25.25542876 0.17853165 15.68879485 -0.2578125 9.1171875 C-0.25110972 6.06742359 -0.18478362 3.04379679 0 0 Z " fill="#FCC3DA" transform="translate(254,125)"/>
<path d="M0 0 C-1.47613985 1.50297876 -2.95599157 3.00231285 -4.4375 4.5 C-5.26121094 5.3353125 -6.08492188 6.170625 -6.93359375 7.03125 C-9 9 -9 9 -10 9 C-9.67 5.7 -9.34 2.4 -9 -1 C-5.12506344 -2.07637127 -3.47547073 -1.94566951 0 0 Z " fill="#ED3B7A" transform="translate(108,115)"/>
<path d="M0 0 C5.61 0 11.22 0 17 0 C17 0.66 17 1.32 17 2 C16.05640625 1.94779297 16.05640625 1.94779297 15.09375 1.89453125 C9.22859472 1.70903688 4.15253383 1.97050094 -1 5 C-3.38388916 7.43608793 -3.38388916 7.43608793 -5 10 C-5.66 10.66 -6.32 11.32 -7 12 C-6.34 9.03 -5.68 6.06 -5 3 C-3.35 3 -1.7 3 0 3 C0 2.01 0 1.02 0 0 Z " fill="#E7447E" transform="translate(263,106)"/>
<path d="M0 0 C0 0.33 0 0.66 0 1 C-1.39412109 1.18175781 -1.39412109 1.18175781 -2.81640625 1.3671875 C-10.55512544 2.32844161 -10.55512544 2.32844161 -18.125 4.125 C-21 5 -21 5 -25 5 C-25 5.66 -25 6.32 -25 7 C-26.65 7 -28.3 7 -30 7 C-24.61051639 1.13545553 -17.40634872 0.595697 -9.85546875 0.1171875 C-6.56079833 -0.01802469 -3.29640135 -0.07491821 0 0 Z " fill="#FEF1FA" transform="translate(198,73)"/>
<path d="M0 0 C3.89608498 1.48904175 7.59097018 3.24378713 11.3125 5.125 C12.38113281 5.66382812 13.44976562 6.20265625 14.55078125 6.7578125 C15.76314453 7.37269531 15.76314453 7.37269531 17 8 C17 8.33 17 8.66 17 9 C15.906875 9.309375 14.81375 9.61875 13.6875 9.9375 C11.44592006 10.58337897 9.2130649 11.2623117 7 12 C6.34 11.67 5.68 11.34 5 11 C5 10.34 5 9.68 5 9 C6.32 9 7.64 9 9 9 C9 8.01 9 7.02 9 6 C7.68 6 6.36 6 5 6 C5 5.34 5 4.68 5 4 C3.68 4 2.36 4 1 4 C0.67 2.68 0.34 1.36 0 0 Z " fill="#EB3273" transform="translate(162,115)"/>
<path d="M0 0 C-0.42335385 6.49142565 -2.91099799 11.33492989 -6 17 C-6.33 16.01 -6.66 15.02 -7 14 C-6.34 13.01 -5.68 12.02 -5 11 C-4.97250522 8.93089407 -4.97250522 8.93089407 -5.375 6.8125 C-5.58125 5.554375 -5.7875 4.29625 -6 3 C-2.25 0 -2.25 0 0 0 Z " fill="#FDDCEC" transform="translate(143,145)"/>
<path d="M0 0 C2.71281141 0.99469752 3.79196703 1.58685382 5.11328125 4.2109375 C6.94055294 9.95839118 7.26800641 17.25334272 4.5 22.75 C3.7575 23.86375 3.7575 23.86375 3 25 C2.01 24.67 1.02 24.34 0 24 C0.28875 23.50371094 0.5775 23.00742188 0.875 22.49609375 C4.18896637 16.43199557 4.86907277 11.80741478 3 5.0625 C2.67 4.051875 2.34 3.04125 2 2 C1.34 2 0.68 2 0 2 C0 1.34 0 0.68 0 0 Z " fill="#E6447C" transform="translate(241,86)"/>
<path d="M0 0 C1.17246771 4.09902098 1.07076062 7.75436258 1 12 C-2.69418201 13.231394 -5.2056261 12.64432764 -9 12 C-8.2575 11.505 -7.515 11.01 -6.75 10.5 C-3.34137326 7.40124842 -1.81273937 4.17233866 0 0 Z " fill="#EC427D" transform="translate(317,179)"/>
<path d="M0 0 C-0.33 0.99 -0.66 1.98 -1 3 C-7.56699525 3.84843174 -13.94550593 4.12561146 -20.5625 4.0625 C-21.47580078 4.05798828 -22.38910156 4.05347656 -23.33007812 4.04882812 C-25.55345738 4.0371874 -27.77669121 4.02083851 -30 4 C-30 3.67 -30 3.34 -30 3 C-28.7934375 2.95101563 -27.586875 2.90203125 -26.34375 2.8515625 C-24.72914694 2.77646468 -23.11456461 2.70091997 -21.5 2.625 C-20.70851562 2.5940625 -19.91703125 2.563125 -19.1015625 2.53125 C-15.15424405 2.33711958 -11.48511184 1.96787844 -7.65625 0.9609375 C-4 0 -4 0 0 0 Z " fill="#EA5E90" transform="translate(222,326)"/>
<path d="M0 0 C1.23419902 2.46839804 0.93852177 3.82464982 0.75 6.5625 C0.64771448 12.41834599 2.78021421 16.23931673 6 21 C5.34 21 4.68 21 4 21 C4 20.34 4 19.68 4 19 C3.38125 18.95875 2.7625 18.9175 2.125 18.875 C0 18 0 18 -1.3125 15.625 C-2.25554428 10.65258471 -1.8394427 5.97730169 -1 1 C-0.67 0.67 -0.34 0.34 0 0 Z " fill="#E74C83" transform="translate(154,295)"/>
<path d="M0 0 C2.8125 2.5625 2.8125 2.5625 5 5 C3.5629191 5.05422947 2.12524538 5.09289723 0.6875 5.125 C-0.11300781 5.14820313 -0.91351563 5.17140625 -1.73828125 5.1953125 C-4 5 -4 5 -7 3 C-7 2.01 -7 1.02 -7 0 C-4.19664415 -1.40167793 -2.9650644 -0.96536981 0 0 Z " fill="#EF3878" transform="translate(105,283)"/>
<path d="M0 0 C0.84304688 1.07314453 0.84304688 1.07314453 1.703125 2.16796875 C3.97236686 4.96592853 6.33051154 7.64394655 8.75 10.3125 C9.54921875 11.19550781 10.3484375 12.07851562 11.171875 12.98828125 C11.77515625 13.65214844 12.3784375 14.31601563 13 15 C11.02 15.99 11.02 15.99 9 17 C8.566875 16.05125 8.13375 15.1025 7.6875 14.125 C6.20697799 10.79958063 6.20697799 10.79958063 3 9 C2.3125 6.375 2.3125 6.375 2 4 C1.34 4 0.68 4 0 4 C0 2.68 0 1.36 0 0 Z " fill="#E53F79" transform="translate(265,166)"/>
<path d="M0 0 C0 4.31618166 -2.13270348 5.92789659 -5 9 C-5.66 9 -6.32 9 -7 9 C-7 10.65 -7 12.3 -7 14 C-7.66 14 -8.32 14 -9 14 C-9.33 14.99 -9.66 15.98 -10 17 C-10.66 16.67 -11.32 16.34 -12 16 C-10.58794973 11.70983633 -8.50383651 9.03782149 -5.4375 5.75 C-4.22900391 4.44289063 -4.22900391 4.44289063 -2.99609375 3.109375 C-1 1 -1 1 0 0 Z " fill="#FDD8E9" transform="translate(103,119)"/>
<path d="M0 0 C0.66 0 1.32 0 2 0 C1.67 1.11375 1.34 2.2275 1 3.375 C-0.76220102 11.08152699 -0.15249489 19.14651309 0 27 C-2.64969037 24.35030963 -2.26142444 22.37449836 -2.2734375 18.76757812 C-2.26183594 17.55231445 -2.26183594 17.55231445 -2.25 16.3125 C-2.25773437 15.52166016 -2.26546875 14.73082031 -2.2734375 13.91601562 C-2.25687657 8.90219274 -1.60317874 4.75227983 0 0 Z " fill="#DF3F76" transform="translate(81,217)"/>
<path d="M0 0 C1.07314453 0.54140625 1.07314453 0.54140625 2.16796875 1.09375 C10.03063928 4.75553705 16.37888179 5.62572632 25 5 C25 5.66 25 6.32 25 7 C7.3726283 7.83608087 7.3726283 7.83608087 1 3 C0.67 2.01 0.34 1.02 0 0 Z " fill="#E2447C" transform="translate(283,186)"/>
<path d="M0 0 C7.49122807 1.35087719 7.49122807 1.35087719 9.8125 4.3125 C10.204375 5.199375 10.59625 6.08625 11 7 C11.5775 7.886875 12.155 8.77375 12.75 9.6875 C13.36875 10.8321875 13.36875 10.8321875 14 12 C13.67 12.66 13.34 13.32 13 14 C12.39671875 13.32453125 11.7934375 12.6490625 11.171875 11.953125 C9.97304688 10.61507812 9.97304688 10.61507812 8.75 9.25 C7.96109375 8.36828125 7.1721875 7.4865625 6.359375 6.578125 C4.29407328 4.32133835 2.18264936 2.14260074 0 0 Z " fill="#E64C82" transform="translate(292,115)"/>
<path d="M0 0 C0.90105469 0.00902344 1.80210938 0.01804688 2.73046875 0.02734375 C3.41753906 0.03894531 4.10460937 0.05054688 4.8125 0.0625 C4.8125 0.3925 4.8125 0.7225 4.8125 1.0625 C3.389375 1.1553125 3.389375 1.1553125 1.9375 1.25 C0.390625 1.6521875 0.390625 1.6521875 -1.1875 2.0625 C-2.64041273 4.52505685 -2.64041273 4.52505685 -3.1875 7.0625 C-3.8475 7.0625 -4.5075 7.0625 -5.1875 7.0625 C-5.1875 6.0725 -5.1875 5.0825 -5.1875 4.0625 C-7.4975 4.3925 -9.8075 4.7225 -12.1875 5.0625 C-8.24704354 0.85028792 -5.71375355 -0.07420459 0 0 Z " fill="#FDD6E9" transform="translate(99.1875,208.9375)"/>
<path d="M0 0 C0.66 0.33 1.32 0.66 2 1 C1.67 2.32 1.34 3.64 1 5 C3.475 5.99 3.475 5.99 6 7 C6 7.66 6 8.32 6 9 C6.66 9.33 7.32 9.66 8 10 C7.01 11.485 7.01 11.485 6 13 C5.46375 12.113125 4.9275 11.22625 4.375 10.3125 C2.06688542 6.81711784 -0.69837793 4.55125342 -4 2 C-2.125 0.9375 -2.125 0.9375 0 0 Z " fill="#E73F7A" transform="translate(238,282)"/>
<path d="M0 0 C2.88905356 1.44452678 3.38701929 3.42190889 4.75 6.3125 C5.45382813 7.76076172 5.45382813 7.76076172 6.171875 9.23828125 C7 12 7 12 6.140625 14.35546875 C5.76421875 14.89816406 5.3878125 15.44085938 5 16 C4.67 16 4.34 16 4 16 C4 14.02 4 12.04 4 10 C3.34 10 2.68 10 2 10 C0.68373308 6.38026598 0 3.90432869 0 0 Z " fill="#E34B7F" transform="translate(83,252)"/>
<path d="M0 0 C0.99 0 1.98 0 3 0 C2.01526648 2.85572721 1.0416157 3.97012206 -1.4375 5.75 C-6.27700401 7.44807158 -10.91338126 7.614866 -16 7 C-16.99 6.34 -17.98 5.68 -19 5 C-14.71 5.33 -10.42 5.66 -6 6 C-6 5.34 -6 4.68 -6 4 C-4.02 3.34 -2.04 2.68 0 2 C0 1.34 0 0.68 0 0 Z " fill="#FDC6DF" transform="translate(311,185)"/>
<path d="M0 0 C1.0625 1.8125 1.0625 1.8125 2 4 C0.74381926 7.76854223 -0.66014706 8.07958456 -4 10 C-4.33 10.66 -4.66 11.32 -5 12 C-5.99 11.67 -6.98 11.34 -8 11 C-7.50628906 10.37351562 -7.01257813 9.74703125 -6.50390625 9.1015625 C-5.54291016 7.87566406 -5.54291016 7.87566406 -4.5625 6.625 C-3.92441406 5.81289063 -3.28632813 5.00078125 -2.62890625 4.1640625 C-0.97776453 2.10601894 -0.97776453 2.10601894 0 0 Z " fill="#E74079" transform="translate(308,267)"/>
<path d="M0 0 C1.9451 2.91765 2.45276317 4.62537285 3 8 C3.66 8 4.32 8 5 8 C5 9.32 5 10.64 5 12 C5.66 12 6.32 12 7 12 C7 13.98 7 15.96 7 18 C3.14906873 13.57142904 0.228645 7.80090119 -0.25 1.9375 C-0.1675 1.298125 -0.085 0.65875 0 0 Z " fill="#FEE0F0" transform="translate(84,248)"/>
<path d="M0 0 C3.79303725 1.00193437 6.71536341 1.81024227 10 4 C10 4.66 10 5.32 10 6 C10.99 6.33 11.98 6.66 13 7 C10.4791665 8.26041675 9.64903564 7.66225891 7 7 C6.01 7.495 6.01 7.495 5 8 C4.34 7.67 3.68 7.34 3 7 C3 6.34 3 5.68 3 5 C3.66 5 4.32 5 5 5 C4.67 4.34 4.34 3.68 4 3 C1.97536745 2.34786708 1.97536745 2.34786708 0 2 C0 1.34 0 0.68 0 0 Z " fill="#FDDEED" transform="translate(107,211)"/>
<path d="M0 0 C1 3 1 3 0.22265625 4.82421875 C-0.8515625 6.54947917 -1.92578125 8.27473958 -3 10 C-5.64 10 -8.28 10 -11 10 C-10.01 9.34 -9.02 8.68 -8 8 C-6.7773242 7.017588 -5.56944472 6.0165487 -4.375 5 C-3.45847656 4.2265625 -3.45847656 4.2265625 -2.5234375 3.4375 C-0.8850634 2.05647464 -0.8850634 2.05647464 0 0 Z " fill="#E64A81" transform="translate(142,284)"/>
<path d="M0 0 C0.99 0.66 1.98 1.32 3 2 C-0.69882872 2.92470718 -4.12689135 3.0265872 -7.9296875 2.96875 C-11.01568175 3.01533105 -13.95818654 3.49303109 -17 4 C-12.55013617 -0.44986383 -5.9946306 -0.77644739 0 0 Z " fill="#FED5EA" transform="translate(305,209)"/>
<path d="M0 0 C0.66 0.33 1.32 0.66 2 1 C-2.30226446 4.41974867 -5.37153425 5.48772579 -10.8515625 5.82421875 C-13.02847637 5.92724966 -13.02847637 5.92724966 -15.1484375 6.64453125 C-16.06496094 6.82048828 -16.06496094 6.82048828 -17 7 C-17.66 6.34 -18.32 5.68 -19 5 C-18.21496094 4.89042969 -17.42992187 4.78085938 -16.62109375 4.66796875 C-9.56565008 3.65119111 -9.56565008 3.65119111 -2.875 1.3125 C-1.451875 0.6628125 -1.451875 0.6628125 0 0 Z " fill="#E85689" transform="translate(227,120)"/>
<path d="M0 0 C1.32 0 2.64 0 4 0 C3.608125 0.680625 3.21625 1.36125 2.8125 2.0625 C1.67935422 6.15925782 3.25735742 8.23589203 5 12 C4.67 12.99 4.34 13.98 4 15 C3.32591692 13.73308493 2.66099503 12.46129251 2 11.1875 C1.443125 10.12595703 1.443125 10.12595703 0.875 9.04296875 C0 7 0 7 0 4 C-0.66 4 -1.32 4 -2 4 C-2 3.34 -2 2.68 -2 2 C-1.34 2 -0.68 2 0 2 C0 1.34 0 0.68 0 0 Z " fill="#E93976" transform="translate(140,106)"/>
<path d="M0 0 C3.96 0 7.92 0 12 0 C12 0.33 12 0.66 12 1 C9.23132003 1.69740804 6.46063138 2.38322853 3.6875 3.0625 C2.90181641 3.26166016 2.11613281 3.46082031 1.30664062 3.66601562 C0.1706543 3.94155273 0.1706543 3.94155273 -0.98828125 4.22265625 C-2.03302612 4.48187866 -2.03302612 4.48187866 -3.09887695 4.74633789 C-5 5 -5 5 -8 4 C-4.91190305 2.23537317 -3.76687864 2 0 2 C0 1.34 0 0.68 0 0 Z " fill="#E15385" transform="translate(180,275)"/>
<path d="M0 0 C2.34259721 1.7569479 3.2236488 2.98166502 4.25 5.6875 C3.321875 5.06875 2.39375 4.45 1.4375 3.8125 C-3.30834181 1.05873994 -8.37989339 0.4255255 -13.75 -0.3125 C-13.75 -0.6425 -13.75 -0.9725 -13.75 -1.3125 C-8.6546468 -2.66126997 -4.7654479 -2.27441832 0 0 Z " fill="#E54F83" transform="translate(310.75,209.3125)"/>
<path d="M0 0 C0.5775 0.763125 1.155 1.52625 1.75 2.3125 C4.52315586 5.62488061 7.42704258 7.61802839 11 10 C8.69 10.33 6.38 10.66 4 11 C2.03810791 7.3321148 0.60698743 4.12751449 0 0 Z " fill="#E7407A" transform="translate(257,284)"/>
<path d="M0 0 C0.33 0 0.66 0 1 0 C1.47438388 4.90196671 0.10236352 9.59628383 -2 14 C-2.99 14.66 -3.98 15.32 -5 16 C-4.54939339 13.89416513 -4.08924044 11.79037128 -3.625 9.6875 C-3.36976563 8.51574219 -3.11453125 7.34398437 -2.8515625 6.13671875 C-2 3 -2 3 0 0 Z " fill="#E54179" transform="translate(146,138)"/>
<path d="M0 0 C5.42039575 -0.40652968 9.07015675 0.96006486 14 3 C14 3.66 14 4.32 14 5 C8.94744036 4.36843005 4.70406799 2.86540627 0 1 C0 0.67 0 0.34 0 0 Z " fill="#FDDAEC" transform="translate(170,322)"/>
<path d="M0 0 C0.763125 0.309375 1.52625 0.61875 2.3125 0.9375 C4.18789677 1.67893593 6.08684652 2.36228217 8 3 C8.6875 5.0625 8.6875 5.0625 9 7 C9.66 7 10.32 7 11 7 C11.33 8.65 11.66 10.3 12 12 C11.319375 11.29875 10.63875 10.5975 9.9375 9.875 C7.22379838 7.14570239 4.31945276 4.68645559 1.35546875 2.234375 C0.90816406 1.82703125 0.46085937 1.4196875 0 1 C0 0.67 0 0.34 0 0 Z " fill="#E5417A" transform="translate(120,218)"/>
<path d="M0 0 C6 9 6 9 6 12 C5.01 12 4.02 12 3 12 C3 11.34 3 10.68 3 10 C2.34 10 1.68 10 1 10 C0.37542727 6.56484998 0 3.50935186 0 0 Z " fill="#E84981" transform="translate(257,150)"/>
<path d="M0 0 C-1.23789629 3.71368887 -2.85224877 4.77354181 -6 7 C-6.66 7 -7.32 7 -8 7 C-8.33 7.99 -8.66 8.98 -9 10 C-9.66 10 -10.32 10 -11 10 C-10.67 8.68 -10.34 7.36 -10 6 C-9.34 6 -8.68 6 -8 6 C-8 5.34 -8 4.68 -8 4 C-2.58823529 0 -2.58823529 0 0 0 Z " fill="#FDCCE2" transform="translate(168,80)"/>
<path d="M0 0 C0.99 0 1.98 0 3 0 C3 0.99 3 1.98 3 3 C4.65 2.67 6.3 2.34 8 2 C7.67 3.65 7.34 5.3 7 7 C8.32 7.33 9.64 7.66 11 8 C10.01 8.33 9.02 8.66 8 9 C6.2109375 7.890625 6.2109375 7.890625 4.375 6.25 C3.76398438 5.71890625 3.15296875 5.1878125 2.5234375 4.640625 C1 3 1 3 0 0 Z " fill="#FED7E9" transform="translate(83,182)"/>
<path d="M0 0 C0.66 0.33 1.32 0.66 2 1 C0.87895467 2.31587941 -0.24696965 3.62760353 -1.375 4.9375 C-2.00148438 5.66839844 -2.62796875 6.39929688 -3.2734375 7.15234375 C-5 9 -5 9 -7 10 C-6.52727227 5.74545047 -4.03562624 3.80795427 -1 1 C-0.67 0.67 -0.34 0.34 0 0 Z " fill="#FEE4F2" transform="translate(129,170)"/>
<path d="M0 0 C0.33 0.66 0.66 1.32 1 2 C0.67 2.99 0.34 3.98 0 5 C0.66 5 1.32 5 2 5 C1.67 5.99 1.34 6.98 1 8 C-2.0625 9.1875 -2.0625 9.1875 -5 10 C-3.66511872 6.40608886 -2.03977277 3.24509304 0 0 Z " fill="#FCDFED" transform="translate(267,232)"/>
<path d="M0 0 C1.66666667 1.66666667 3.33333333 3.33333333 5 5 C5.8971875 5.8353125 5.8971875 5.8353125 6.8125 6.6875 C8 8 8 8 8 10 C6.68 9.67 5.36 9.34 4 9 C3.67 7.35 3.34 5.7 3 4 C2.01 4 1.02 4 0 4 C0 2.68 0 1.36 0 0 Z " fill="#FBCDE2" transform="translate(124,222)"/>
<path d="M0 0 C1.98 0 3.96 0 6 0 C1.46239141 3.72732134 -1.95078013 4.13153833 -7.75 4.0625 C-8.73484375 4.05347656 -9.7196875 4.04445312 -10.734375 4.03515625 C-11.48203125 4.02355469 -12.2296875 4.01195312 -13 4 C-13 3.67 -13 3.34 -13 3 C-6.565 2.505 -6.565 2.505 0 2 C0 1.34 0 0.68 0 0 Z " fill="#FBBCD8" transform="translate(106,188)"/>
<path d="M0 0 C5.05531868 0.77774134 10.01716284 1.85948394 15 3 C15 3.33 15 3.66 15 4 C4.27475338 4.56229448 4.27475338 4.56229448 0 1 C0 0.67 0 0.34 0 0 Z " fill="#E65185" transform="translate(174,325)"/>
<path d="M0 0 C2.47310494 3.70965741 2.55899802 6.69814567 2 11 C0.5 14.5 0.5 14.5 -1 17 C-1.625 15.25 -1.625 15.25 -2 13 C-1.6803125 12.3915625 -1.360625 11.783125 -1.03125 11.15625 C0.16484628 8.65532141 0.20594307 7.00206426 0.125 4.25 C0.10695312 3.45078125 0.08890625 2.6515625 0.0703125 1.828125 C0.04710937 1.22484375 0.02390625 0.6215625 0 0 Z " fill="#FEC3DD" transform="translate(244,295)"/>
<path d="M0 0 C0.75 1.75 0.75 1.75 1 4 C-0.75 6.25 -0.75 6.25 -3 8 C-3.99 8 -4.98 8 -6 8 C-4.55746343 4.63408134 -2.66735273 2.48952921 0 0 Z " fill="#EB417B" transform="translate(299,279)"/>
<path d="M0 0 C1.95825873 -0.02694851 3.91662226 -0.04637218 5.875 -0.0625 C6.96554688 -0.07410156 8.05609375 -0.08570313 9.1796875 -0.09765625 C12 0 12 0 14 1 C14 1.66 14 2.32 14 3 C4.58997722 2.03644647 4.58997722 2.03644647 0 1 C0 0.67 0 0.34 0 0 Z " fill="#E55285" transform="translate(208,275)"/>
<path d="M0 0 C0.66 0.33 1.32 0.66 2 1 C0.79618552 3.49361571 -0.45428722 5.68143083 -2 8 C-2.99 8 -3.98 8 -5 8 C-5 6.68 -5 5.36 -5 4 C-4.01 4 -3.02 4 -2 4 C-1.34 2.68 -0.68 1.36 0 0 Z " fill="#EF2E70" transform="translate(305,275)"/>
<path d="M0 0 C1.5 1.125 1.5 1.125 3 3 C3.1875 6.1875 3.1875 6.1875 3 9 C1.29115995 7.37660195 -0.37446717 5.70680947 -2 4 C-2 3.34 -2 2.68 -2 2 C-1.34 2 -0.68 2 0 2 C0 1.34 0 0.68 0 0 Z " fill="#EB3E7A" transform="translate(308,127)"/>
<path d="M0 0 C0.78375 0.04125 1.5675 0.0825 2.375 0.125 C0.03988517 2.99898748 -0.99931801 4.04991816 -4.75 4.5 C-7.625 4.125 -7.625 4.125 -9.625 2.125 C-8.84125 2.16625 -8.0575 2.2075 -7.25 2.25 C-3.76600438 2.08409545 -3.48399562 0.16590455 0 0 Z " fill="#F9E4F1" transform="translate(237.625,111.875)"/>
<path d="M0 0 C-4.95 1.485 -4.95 1.485 -10 3 C-10 3.66 -10 4.32 -10 5 C-11.65 5 -13.3 5 -15 5 C-12.86699672 2.63442627 -11.04050601 1.37032472 -8.0625 0.25 C-7.39347656 -0.01296875 -6.72445312 -0.2759375 -6.03515625 -0.546875 C-4 -1 -4 -1 0 0 Z " fill="#FCC6DE" transform="translate(183,75)"/>
<path d="M0 0 C0.99 0.66 1.98 1.32 3 2 C1.35 4.31 -0.3 6.62 -2 9 C-3.0625 7.125 -3.0625 7.125 -4 5 C-3.67 4.34 -3.34 3.68 -3 3 C-2.34 3.33 -1.68 3.66 -1 4 C-0.67 2.68 -0.34 1.36 0 0 Z " fill="#E6407A" transform="translate(92,127)"/>
<path d="M0 0 C0.66 0.33 1.32 0.66 2 1 C-0.31 3.64 -2.62 6.28 -5 9 C-5.33 8.01 -5.66 7.02 -6 6 C-5.34 6 -4.68 6 -4 6 C-3.71125 5.195625 -3.4225 4.39125 -3.125 3.5625 C-2 1 -2 1 0 0 Z " fill="#FED5EA" transform="translate(303,272)"/>
<path d="M0 0 C0.33 0 0.66 0 1 0 C1 1.65 1 3.3 1 5 C1.66 5 2.32 5 3 5 C3.33 6.32 3.66 7.64 4 9 C3.01 9 2.02 9 1 9 C-0.8125 6.75 -0.8125 6.75 -2 4 C-1.1875 1.6875 -1.1875 1.6875 0 0 Z " fill="#EB3A78" transform="translate(134,228)"/>
<path d="M0 0 C0.99 0.33 1.98 0.66 3 1 C1.66666667 4.33333333 0.33333333 7.66666667 -1 11 C-2.60080151 6.99799622 -1.29279692 3.95443764 0 0 Z " fill="#E93775" transform="translate(155,85)"/>
<path d="M0 0 C-2.88087546 2.40072955 -5.56404834 4.47291037 -9 6 C-8.67 4.35 -8.34 2.7 -8 1 C-5.07175348 0.02391783 -3.04386724 -0.08226668 0 0 Z " fill="#E8407B" transform="translate(171,77)"/>
<path d="M0 0 C1.46911544 3.81970016 0.52561108 6.30641529 -1 10 C-1.66 10.66 -2.32 11.32 -3 12 C-2.14285714 3.42857143 -2.14285714 3.42857143 0 0 Z " fill="#FCC0D9" transform="translate(259,246)"/>
<path d="M0 0 C0.66 0.33 1.32 0.66 2 1 C-0.475 5.455 -0.475 5.455 -3 10 C-4.1092904 6.67212881 -4.01557588 5.3006216 -3 2 C-2.01 1.34 -1.02 0.68 0 0 Z " fill="#E25183" transform="translate(264,234)"/>
<path d="M0 0 C1.17571451 3.67410785 1.07366746 7.16929183 1 11 C0.01 11.33 -0.98 11.66 -2 12 C-1.85904936 10.3745692 -1.71207913 8.74965949 -1.5625 7.125 C-1.48128906 6.22007812 -1.40007812 5.31515625 -1.31640625 4.3828125 C-1 2 -1 2 0 0 Z " fill="#F02E72" transform="translate(319,176)"/>
<path d="M0 0 C0.66 0.33 1.32 0.66 2 1 C1.5 2.9375 1.5 2.9375 0 5 C-2.69658452 5.68790422 -5.2017019 5.81946464 -8 6 C-6.32169152 2.64338305 -3.29210653 1.67493139 0 0 Z " fill="#EA5086" transform="translate(237,114)"/>
<path d="M0 0 C0.99 0.495 0.99 0.495 2 1 C2 1.99 2 2.98 2 4 C2.61875 4.0825 3.2375 4.165 3.875 4.25 C6 5 6 5 7.25 7.0625 C7.4975 7.701875 7.745 8.34125 8 9 C7.34 9 6.68 9 6 9 C6 8.34 6 7.68 6 7 C5.38125 6.95875 4.7625 6.9175 4.125 6.875 C3.42375 6.58625 2.7225 6.2975 2 6 C0.75 2.9375 0.75 2.9375 0 0 Z " fill="#EC447F" transform="translate(152,307)"/>
<path d="M0 0 C1.18771723 3.42943519 0.80226223 5.37784675 -0.4375 8.75 C-0.86869141 9.94882813 -0.86869141 9.94882813 -1.30859375 11.171875 C-1.65083984 12.07679688 -1.65083984 12.07679688 -2 13 C-2.33 13 -2.66 13 -3 13 C-3 11.02 -3 9.04 -3 7 C-2.34 7 -1.68 7 -1 7 C-0.67 4.69 -0.34 2.38 0 0 Z " fill="#E73775" transform="translate(260,237)"/>
<path d="M0 0 C0.33 0.66 0.66 1.32 1 2 C-1.35380297 5.92300495 -3.64464931 6.83857315 -8 8 C-5.33333333 5.33333333 -2.66666667 2.66666667 0 0 Z " fill="#E95D8F" transform="translate(123,179)"/>
<path d="M0 0 C1 2 1 2 0.4375 4.5 C-1 7 -1 7 -4.125 8.3125 C-5.07375 8.539375 -6.0225 8.76625 -7 9 C-6.02180976 7.68677212 -5.0424189 6.37443848 -4.0625 5.0625 C-3.51722656 4.33160156 -2.97195312 3.60070312 -2.41015625 2.84765625 C-1 1 -1 1 0 0 Z " fill="#E25787" transform="translate(131,170)"/>
<path d="M0 0 C1.99609375 0.05078125 1.99609375 0.05078125 4.4375 0.3125 C5.64212891 0.43044922 5.64212891 0.43044922 6.87109375 0.55078125 C9 1 9 1 11 3 C9.5629191 3.05422947 8.12524538 3.09289723 6.6875 3.125 C5.88699219 3.14820312 5.08648437 3.17140625 4.26171875 3.1953125 C2 3 2 3 -1 1 C-0.67 0.67 -0.34 0.34 0 0 Z " fill="#ED3173" transform="translate(179,124)"/>
<path d="M0 0 C-0.33 1.32 -0.66 2.64 -1 4 C-1.66 4 -2.32 4 -3 4 C-3.66 5.32 -4.32 6.64 -5 8 C-5.66 8 -6.32 8 -7 8 C-4.18918919 0 -4.18918919 0 0 0 Z " fill="#FDC9E2" transform="translate(264,110)"/>
<path d="M0 0 C1.98 0 3.96 0 6 0 C6.33 1.98 6.66 3.96 7 6 C5.83054208 5.19152271 4.66449539 4.37810888 3.5 3.5625 C2.8503125 3.11003906 2.200625 2.65757813 1.53125 2.19140625 C1.0259375 1.79824219 0.520625 1.40507813 0 1 C0 0.67 0 0.34 0 0 Z " fill="#E93C79" transform="translate(234,80)"/>
<path d="M0 0 C0.33 1.32 0.66 2.64 1 4 C-1.86177057 5.43088528 -3.93375773 4.59991697 -7 4 C-2.25 0 -2.25 0 0 0 Z " fill="#E83A78" transform="translate(115,187)"/>
<path d="M0 0 C0.66 0 1.32 0 2 0 C2.66 2.64 3.32 5.28 4 8 C3.34 8 2.68 8 2 8 C2 7.34 2 6.68 2 6 C1.34 6 0.68 6 0 6 C0 4.02 0 2.04 0 0 Z " fill="#E4437A" transform="translate(253,276)"/>
<path d="M0 0 C1.23076923 4.92307692 1.23076923 4.92307692 0 8 C-0.99 8.66 -1.98 9.32 -3 10 C-2.01 6.7 -1.02 3.4 0 0 Z " fill="#FBCCE1" transform="translate(86,142)"/>
<path d="M0 0 C3.26460973 1.80412643 4.88929795 2.83394693 7 6 C4.625 5.8125 4.625 5.8125 2 5 C0.6875 2.4375 0.6875 2.4375 0 0 Z " fill="#FED0E5" transform="translate(234,81)"/>
<path d="M0 0 C0 4.38968456 -2.12805101 5.76905739 -5 9 C-5.33 8.01 -5.66 7.02 -6 6 C-4.02 4.02 -2.04 2.04 0 0 Z " fill="#FEE1F2" transform="translate(103,119)"/>
<path d="M0 0 C3.37503669 1.1858237 5.64722731 2.27573689 8 5 C5.69 4.67 3.38 4.34 1 4 C0.67 2.68 0.34 1.36 0 0 Z " fill="#E7457E" transform="translate(162,115)"/>
<path d="M0 0 C1.32 0 2.64 0 4 0 C4 0.99 4 1.98 4 3 C5.32 3.33 6.64 3.66 8 4 C6.35 4.33 4.7 4.66 3 5 C2.01 3.35 1.02 1.7 0 0 Z " fill="#ED3777" transform="translate(168,72)"/>
</svg>
