<svg width="974" height="175" viewBox="0 0 974 175" fill="none" xmlns="http://www.w3.org/2000/svg">
<path fill-rule="evenodd" clip-rule="evenodd" d="M619.085 121.161L623.283 101.43C625.588 101.7 628.591 101.952 632.771 101.952C642.537 101.952 650.508 99.2859 656.046 94.5605C661.592 89.8279 664.66 83.062 664.66 74.9536C664.66 69.454 663.192 64.8297 660.428 61.2297C657.664 57.6297 653.628 55.0868 648.551 53.7068C645.598 52.902 642.29 52.4883 638.669 52.4883C634.833 52.4883 627.325 53.5176 622.799 54.282L622.507 54.3299L608.258 121.163H619.083L619.085 121.161ZM632.303 91.9975C630.832 91.9975 629.524 91.9747 628.32 91.9195C627.258 91.8689 626.279 91.7932 625.339 91.6823L631.445 63.0562C633.395 62.7787 636.134 62.4407 638.95 62.4407C640.687 62.4407 642.273 62.5819 643.706 62.8544C646.465 63.3791 648.658 64.3908 650.301 65.8086C652.784 67.9529 654.057 71.0812 654.057 75.047C654.057 80.1305 652.233 84.3461 648.636 87.3C645.03 90.2643 639.591 91.9975 632.303 91.9975Z" fill="black"/>
<path d="M714.39 121.159L728.774 53.6875H717.944L703.562 121.159H714.392H714.39Z" fill="black"/>
<path fill-rule="evenodd" clip-rule="evenodd" d="M851.096 78.0494L856.335 53.6844H867.175L857.676 97.9164C856.831 101.791 856.093 106.191 856.093 108.784C856.093 109.847 856.233 110.659 856.512 111.191C856.647 111.451 856.811 111.633 856.998 111.751C857.183 111.87 857.417 111.941 857.721 111.941C858.114 111.941 858.603 111.759 859.179 111.373C859.75 110.992 860.365 110.437 861.003 109.758C862.252 108.431 863.546 106.67 864.695 104.917C864.687 104.697 864.685 104.476 864.685 104.249C864.685 97.0131 867.27 89.5888 871.756 83.9679C876.245 78.3447 882.656 74.5049 890.302 74.5049C895.605 74.5049 899.845 76.3642 902.757 79.5504C905.665 82.7317 907.213 87.1944 907.213 92.3384C907.213 104.627 899.845 117.445 888.321 121.134C886.209 121.809 883.939 122.178 881.596 122.178C879.253 122.178 877.117 121.814 875.208 121.129C871.91 119.95 869.311 117.819 867.521 114.993C865.306 117.796 862.833 119.933 860.071 121.118C858.476 121.807 856.761 122.178 855.007 122.178C853.252 122.178 851.692 121.817 850.365 121.103C847.557 119.587 845.926 116.542 845.705 112.266C843.235 116.323 839.9 119.552 835.633 121.129C833.798 121.804 831.804 122.173 829.636 122.173C827.607 122.173 825.747 121.804 824.08 121.121C820.588 119.693 817.978 116.913 816.45 113.373C814.125 117.218 811.592 119.789 808.739 121.113C807.208 121.825 805.563 122.173 803.893 122.173C802.223 122.173 800.74 121.802 799.489 121.098C796.812 119.592 795.274 116.64 794.988 112.859C792.685 116.58 789.601 119.61 785.576 121.126C783.782 121.802 781.81 122.173 779.646 122.173C777.627 122.173 775.753 121.809 774.063 121.123C771.96 120.27 770.312 118.873 769.048 117.13C766.8 119.368 764.168 121 761.349 121.875C758.209 122.849 754.762 122.884 751.541 121.552C748.279 120.2 745.684 117.622 744.032 114.158C743.187 112.384 742.334 110.278 741.514 108.247C741.285 107.677 741.055 107.112 740.831 106.562C740.333 105.346 739.834 104.155 739.318 103.007C738.152 103.25 737.03 103.413 735.971 103.509L732.2 121.202H721.023L735.48 53.3867H746.658L738.64 90.9937C744.281 89.3513 752.057 84.7043 757.401 73.2309L767.984 78.2814C763.046 88.8848 756.212 95.3861 749.517 99.1448C750.001 100.242 750.45 101.322 750.871 102.351C751.15 103.035 751.414 103.686 751.666 104.309C752.459 106.267 753.132 107.937 753.819 109.375C754.428 110.649 755.131 111.153 755.659 111.37C756.232 111.607 757.07 111.698 758.169 111.358C760.384 110.669 763.308 108.239 764.754 103.582L765.813 98.8876C766.227 95.797 767.007 92.9841 767.997 90.913C772.73 81.0086 782.186 74.3132 792.657 74.3132C796.065 74.3132 799.624 75.1381 802.734 76.3844C805.842 77.6306 808.542 79.3133 810.212 81.0592L810.376 81.2307L810.324 81.4627C809.993 82.931 809.576 84.7221 809.12 86.6874C808.38 89.8711 807.535 93.5139 806.767 96.998C806.149 99.8133 805.586 102.515 805.175 104.771C804.763 107.039 804.516 108.822 804.516 109.819C804.516 110.57 804.671 111.108 804.905 111.446C805.125 111.764 805.436 111.933 805.86 111.933C806.458 111.933 807.166 111.602 807.984 110.838C808.796 110.079 809.671 108.936 810.598 107.425C812.45 104.402 814.471 99.9747 816.615 94.382C820.565 82.3834 830.71 74.5023 840.877 74.5023C845.543 74.5023 848.793 75.9 851.106 78.0444L851.096 78.0494ZM796.538 94.0364L798.519 85.6505C796.673 84.5479 794.577 83.8015 791.902 83.8015C787.251 83.8015 783.156 86.3997 780.207 90.2723C777.256 94.1445 775.489 99.251 775.489 104.16C775.489 106.648 776.082 108.666 777.161 110.053C778.231 111.428 779.809 112.226 781.887 112.226C785.003 112.226 787.979 110.634 790.529 107.551C793.081 104.463 795.189 99.9017 796.538 94.0387V94.0364ZM848.68 89.0361L849.189 86.5661C847.312 85.0979 844.757 83.993 841.43 83.993C836.971 83.993 833.038 86.5182 830.204 90.3279C827.37 94.1395 825.668 99.1977 825.668 104.16C825.668 106.746 826.263 108.764 827.308 110.129C828.342 111.479 829.85 112.228 831.787 112.228C835.336 112.228 838.803 109.942 841.781 105.85C844.755 101.766 847.193 95.9461 848.68 89.0385V89.0361ZM877.184 109.783C878.334 111.282 880.118 112.223 882.715 112.223C886.448 112.223 889.866 109.75 892.376 106.057C894.879 102.371 896.419 97.5429 896.419 93.0045C896.419 90.5573 895.867 88.4206 894.705 86.9044C893.562 85.4057 891.774 84.4622 889.175 84.4622C885.444 84.4622 882.028 86.9573 879.517 90.6631C877.015 94.3616 875.475 99.1927 875.475 103.686C875.475 106.133 876.026 108.267 877.184 109.783Z" fill="black"/>
<path d="M944.001 108.453L943.75 108.821C941.765 111.758 939.066 115.033 937.224 116.675C935.722 118.022 933.996 119.273 932.092 120.242C929.794 121.418 927.23 122.175 924.488 122.175C922.155 122.175 920.143 121.756 918.444 120.979C913.837 118.872 911.694 114.192 911.694 108.501C911.694 106.248 911.948 104.054 912.234 102.33V102.315L912.242 102.278C912.346 101.674 912.447 101.127 912.547 100.658L915.899 84.9334H908.488L910.508 75.4527H917.865L921.792 57.2383H932.625L928.678 75.4527H941.8L939.784 84.9334H926.619L923.229 101.029C923.221 101.064 923.213 101.097 923.209 101.129V101.142L923.206 101.147C923.198 101.185 923.194 101.221 923.186 101.258H923.182L923.179 101.294C922.735 103.557 922.391 105.593 922.391 107.272C922.391 108.829 922.711 110.027 923.271 110.822C923.82 111.599 924.619 112.033 925.704 112.033C926.944 112.033 928.072 111.584 929.338 110.673C930.609 109.755 931.987 108.39 933.721 106.594C933.856 106.44 934.706 105.398 935.625 104.268L936.367 103.36L944.001 108.453Z" fill="black"/>
<path fill-rule="evenodd" clip-rule="evenodd" d="M687.063 74.5078C679.419 74.5078 673.005 78.3451 668.516 83.9706C664.03 89.5915 661.445 97.0135 661.445 104.251C661.445 112.347 665.219 118.72 671.976 121.134C673.883 121.817 676.016 122.178 678.357 122.178C680.697 122.178 682.96 121.812 685.069 121.139C696.599 117.458 703.977 104.635 703.977 92.3414C703.977 87.1975 702.426 82.7344 699.518 79.5535C696.604 76.3696 692.364 74.5078 687.063 74.5078ZM679.481 112.223C676.884 112.223 675.099 111.28 673.95 109.784C672.789 108.268 672.24 106.134 672.24 103.686C672.24 99.1931 673.78 94.3646 676.283 90.6635C678.793 86.9577 682.21 84.4626 685.941 84.4626C688.541 84.4626 690.325 85.406 691.472 86.9048C692.634 88.4209 693.182 90.5577 693.182 93.0049C693.182 97.5433 691.642 102.372 689.139 106.058C686.632 109.751 683.212 112.223 679.481 112.223Z" fill="black"/>
<path d="M546.944 59.8543C556.252 59.8543 563.798 55.4097 563.798 49.9271C563.798 44.4445 556.252 40 546.944 40C537.636 40 530.09 44.4445 530.09 49.9271C530.09 55.4097 537.636 59.8543 546.944 59.8543Z" fill="#FF2670"/>
<path d="M546.944 134.616C556.252 134.616 563.798 130.171 563.798 124.689C563.798 119.206 556.252 114.762 546.944 114.762C537.636 114.762 530.09 119.206 530.09 124.689C530.09 130.171 537.636 134.616 546.944 134.616Z" fill="#FF2670"/>
<path d="M523.459 73.5785C528.113 65.4194 528.084 56.5833 523.394 53.8427C518.705 51.1021 511.13 55.4948 506.476 63.6539C501.822 71.8132 501.85 80.6491 506.54 83.3898C511.23 86.1305 518.805 81.7377 523.459 73.5785Z" fill="#FF2670"/>
<path d="M587.428 110.959C592.082 102.8 592.052 93.9632 587.361 91.2221C582.67 88.4806 575.094 92.8726 570.44 101.032C565.786 109.191 565.816 118.028 570.507 120.769C575.198 123.51 582.773 119.118 587.428 110.959Z" fill="#FF2670"/>
<path d="M523.392 120.773C528.083 118.032 528.113 109.195 523.459 101.036C518.805 92.8768 511.229 88.4847 506.538 91.2258C501.847 93.9673 501.817 102.804 506.471 110.963C511.125 119.122 518.701 123.514 523.392 120.773Z" fill="#FF2670"/>
<path d="M587.361 83.3901C592.052 80.649 592.082 71.8123 587.428 63.6531C582.773 55.4939 575.198 51.1018 570.507 53.8431C565.816 56.5844 565.786 65.421 570.44 73.5802C575.094 81.7396 582.67 86.1316 587.361 83.3901Z" fill="#FF2670"/>
<path d="M29.95 121V59.8H54.1325C54.7275 59.8 55.4358 59.8283 56.2575 59.885C57.0792 59.9133 57.8725 59.9983 58.6375 60.14C61.9525 60.65 64.7292 61.7833 66.9675 63.54C69.2342 65.2967 70.9342 67.5208 72.0675 70.2125C73.2008 72.8758 73.7675 75.8367 73.7675 79.095C73.7675 82.325 73.1867 85.2858 72.025 87.9775C70.8917 90.6408 69.1917 92.865 66.925 94.65C64.6867 96.4067 61.9242 97.54 58.6375 98.05C57.8725 98.1633 57.0792 98.2483 56.2575 98.305C55.4358 98.3617 54.7275 98.39 54.1325 98.39H37.515V121H29.95ZM37.515 91.2075H53.8775C54.4158 91.2075 55.025 91.1792 55.705 91.1225C56.4133 91.0658 57.0792 90.9667 57.7025 90.825C59.6575 90.3717 61.2442 89.55 62.4625 88.36C63.7092 87.1417 64.6158 85.725 65.1825 84.11C65.7492 82.4667 66.0325 80.795 66.0325 79.095C66.0325 77.395 65.7492 75.7375 65.1825 74.1225C64.6158 72.4792 63.7092 71.0483 62.4625 69.83C61.2442 68.6117 59.6575 67.79 57.7025 67.365C57.0792 67.195 56.4133 67.0958 55.705 67.0675C55.025 67.0108 54.4158 66.9825 53.8775 66.9825H37.515V91.2075ZM101.38 122.275C96.8182 122.275 92.8799 121.241 89.5649 119.172C86.2782 117.104 83.7424 114.242 81.9574 110.587C80.1724 106.932 79.2799 102.739 79.2799 98.0075C79.2799 93.1908 80.1865 88.9692 81.9999 85.3425C83.8132 81.7158 86.3774 78.8967 89.6924 76.885C93.0074 74.845 96.9032 73.825 101.38 73.825C105.97 73.825 109.922 74.8592 113.237 76.9275C116.552 78.9675 119.088 81.815 120.845 85.47C122.63 89.0967 123.522 93.2758 123.522 98.0075C123.522 102.796 122.63 107.017 120.845 110.672C119.06 114.299 116.51 117.147 113.195 119.215C109.88 121.255 105.942 122.275 101.38 122.275ZM101.38 115.092C106.14 115.092 109.682 113.506 112.005 110.332C114.328 107.159 115.49 103.051 115.49 98.0075C115.49 92.8225 114.314 88.7 111.962 85.64C109.611 82.5517 106.083 81.0075 101.38 81.0075C98.1782 81.0075 95.5432 81.73 93.4749 83.175C91.4066 84.62 89.8624 86.6175 88.8424 89.1675C87.8224 91.7175 87.3124 94.6642 87.3124 98.0075C87.3124 103.164 88.5024 107.301 90.8824 110.417C93.2624 113.534 96.7615 115.092 101.38 115.092ZM140.995 121L126.97 75.0575L134.492 75.1L144.735 108.675L155.062 75.1H161.735L172.02 108.675L182.305 75.1H189.785L175.76 121H169.47L158.377 86.1075L147.285 121H140.995ZM215.69 122.275C211.185 122.275 207.246 121.283 203.875 119.3C200.531 117.288 197.925 114.497 196.055 110.927C194.185 107.329 193.25 103.136 193.25 98.3475C193.25 93.3325 194.17 88.9975 196.012 85.3425C197.854 81.6592 200.418 78.8258 203.705 76.8425C207.02 74.8308 210.901 73.825 215.35 73.825C219.968 73.825 223.892 74.8875 227.122 77.0125C230.38 79.1375 232.817 82.1692 234.432 86.1075C236.075 90.0458 236.784 94.735 236.557 100.175H228.907V97.455C228.822 91.8167 227.675 87.6092 225.465 84.8325C223.255 82.0275 219.968 80.625 215.605 80.625C210.93 80.625 207.374 82.1267 204.937 85.13C202.5 88.1333 201.282 92.44 201.282 98.05C201.282 103.462 202.5 107.655 204.937 110.63C207.374 113.605 210.845 115.092 215.35 115.092C218.381 115.092 221.016 114.398 223.255 113.01C225.493 111.622 227.25 109.624 228.525 107.017L235.792 109.525C234.007 113.577 231.315 116.722 227.717 118.96C224.147 121.17 220.138 122.275 215.69 122.275ZM198.732 100.175V94.0975H232.647V100.175H198.732ZM246.019 121V75.1H252.777V86.1925L251.672 84.7475C252.21 83.3308 252.904 82.0275 253.754 80.8375C254.633 79.6475 255.61 78.67 256.687 77.905C257.877 76.9417 259.223 76.205 260.724 75.695C262.226 75.185 263.756 74.8875 265.314 74.8025C266.873 74.6892 268.332 74.7883 269.692 75.1V82.1975C268.105 81.7725 266.363 81.6592 264.464 81.8575C262.566 82.0558 260.809 82.75 259.194 83.94C257.721 84.9883 256.574 86.2633 255.752 87.765C254.959 89.2667 254.406 90.8958 254.094 92.6525C253.783 94.3808 253.627 96.1517 253.627 97.965V121H246.019ZM296.788 122.275C292.283 122.275 288.345 121.283 284.973 119.3C281.63 117.288 279.023 114.497 277.153 110.927C275.283 107.329 274.348 103.136 274.348 98.3475C274.348 93.3325 275.269 88.9975 277.111 85.3425C278.952 81.6592 281.517 78.8258 284.803 76.8425C288.118 74.8308 292 73.825 296.448 73.825C301.067 73.825 304.991 74.8875 308.221 77.0125C311.479 79.1375 313.916 82.1692 315.531 86.1075C317.174 90.0458 317.882 94.735 317.656 100.175H310.006V97.455C309.921 91.8167 308.773 87.6092 306.563 84.8325C304.353 82.0275 301.067 80.625 296.703 80.625C292.028 80.625 288.472 82.1267 286.036 85.13C283.599 88.1333 282.381 92.44 282.381 98.05C282.381 103.462 283.599 107.655 286.036 110.63C288.472 113.605 291.943 115.092 296.448 115.092C299.48 115.092 302.115 114.398 304.353 113.01C306.592 111.622 308.348 109.624 309.623 107.017L316.891 109.525C315.106 113.577 312.414 116.722 308.816 118.96C305.246 121.17 301.237 122.275 296.788 122.275ZM279.831 100.175V94.0975H313.746V100.175H279.831ZM345.138 122.275C340.86 122.275 337.19 121.213 334.13 119.087C331.07 116.934 328.705 114.03 327.033 110.375C325.39 106.72 324.568 102.597 324.568 98.0075C324.568 93.4175 325.39 89.295 327.033 85.64C328.705 81.985 331.07 79.1092 334.13 77.0125C337.19 74.8875 340.845 73.825 345.095 73.825C349.43 73.825 353.071 74.8733 356.018 76.97C358.965 79.0667 361.189 81.9425 362.69 85.5975C364.22 89.2525 364.985 93.3892 364.985 98.0075C364.985 102.569 364.22 106.692 362.69 110.375C361.189 114.03 358.965 116.934 356.018 119.087C353.071 121.213 349.445 122.275 345.138 122.275ZM346.073 115.347C349.161 115.347 351.697 114.611 353.68 113.137C355.664 111.636 357.123 109.582 358.058 106.975C359.021 104.34 359.503 101.351 359.503 98.0075C359.503 94.6075 359.021 91.6183 358.058 89.04C357.123 86.4333 355.678 84.4075 353.723 82.9625C351.768 81.4892 349.289 80.7525 346.285 80.7525C343.169 80.7525 340.59 81.5175 338.55 83.0475C336.539 84.5775 335.037 86.6458 334.045 89.2525C333.082 91.8592 332.6 94.7775 332.6 98.0075C332.6 101.266 333.096 104.212 334.088 106.847C335.08 109.454 336.567 111.522 338.55 113.052C340.562 114.582 343.07 115.347 346.073 115.347ZM359.503 121V87.2125H358.653V59.8H366.26V121H359.503ZM416.264 122.275C411.958 122.275 408.331 121.213 405.384 119.087C402.438 116.934 400.199 114.03 398.669 110.375C397.168 106.692 396.417 102.569 396.417 98.0075C396.417 93.3892 397.168 89.2525 398.669 85.5975C400.199 81.9425 402.438 79.0667 405.384 76.97C408.359 74.8733 412 73.825 416.307 73.825C420.557 73.825 424.212 74.8875 427.272 77.0125C430.36 79.1092 432.726 81.985 434.369 85.64C436.013 89.295 436.834 93.4175 436.834 98.0075C436.834 102.597 436.013 106.72 434.369 110.375C432.726 114.03 430.36 116.934 427.272 119.087C424.212 121.213 420.543 122.275 416.264 122.275ZM395.142 121V59.8H402.749V87.2125H401.899V121H395.142ZM415.329 115.347C418.361 115.347 420.869 114.582 422.852 113.052C424.835 111.522 426.323 109.454 427.314 106.847C428.306 104.212 428.802 101.266 428.802 98.0075C428.802 94.7775 428.306 91.8592 427.314 89.2525C426.351 86.6458 424.849 84.5775 422.809 83.0475C420.798 81.5175 418.234 80.7525 415.117 80.7525C412.142 80.7525 409.677 81.4892 407.722 82.9625C405.767 84.4075 404.308 86.4333 403.344 89.04C402.381 91.6183 401.899 94.6075 401.899 98.0075C401.899 101.351 402.367 104.34 403.302 106.975C404.265 109.582 405.739 111.636 407.722 113.137C409.705 114.611 412.241 115.347 415.329 115.347ZM449.953 141.4L458.835 117.26L458.963 124.4L438.903 75.1H446.85L462.575 114.753H459.855L474.603 75.1H482.295L457.305 141.4H449.953Z" fill="black"/>
</svg>
