<svg width="19" height="16" viewBox="0 0 19 16" fill="none" xmlns="http://www.w3.org/2000/svg">
<path d="M14.5119 5.62504C14.5118 4.82853 13.9266 4.27055 13.3095 4.27055H3.23396C2.61684 4.27055 2.03169 4.82853 2.03154 5.62504V13.1064C2.03169 13.9029 2.61684 14.4609 3.23396 14.4609H13.3095C13.9266 14.4609 14.5118 13.9029 14.5119 13.1064V5.62504ZM16.8019 12.0374V5.47296C16.8019 3.54601 15.2365 1.98052 13.3095 1.98052H3.69167C3.34386 1.98052 3.06176 1.69842 3.06176 1.35061C3.06176 1.0028 3.34386 0.720703 3.69167 0.720703H13.3095C15.9321 0.720703 18.0618 2.85039 18.0618 5.47296V12.0374C18.0618 12.3852 17.7797 12.6673 17.4319 12.6673C17.084 12.6673 16.8019 12.3852 16.8019 12.0374ZM12.2122 9.26508C12.1924 9.1659 12.1439 9.07376 12.0713 9.00119C11.9987 8.92863 11.9066 8.88005 11.8074 8.8603L11.7068 8.85061C11.5701 8.85061 11.4389 8.90456 11.3422 9.00119C11.2456 9.09782 11.1917 9.22906 11.1917 9.36572C11.1917 9.50237 11.2456 9.63362 11.3422 9.73025C11.4389 9.82687 11.5701 9.88083 11.7068 9.88083L11.8074 9.87114C11.9066 9.85139 11.9987 9.80281 12.0713 9.73025C12.1679 9.63362 12.2219 9.50237 12.2219 9.36572L12.2122 9.26508ZM13.4817 9.36572C13.4817 9.83642 13.2942 10.2875 12.9614 10.6203C12.6701 10.9116 12.2883 11.0914 11.882 11.1317L11.7068 11.1406C11.2361 11.1406 10.785 10.9532 10.4522 10.6203C10.1193 10.2875 9.93185 9.83642 9.93185 9.36572C9.93185 8.89502 10.1193 8.44396 10.4522 8.11112C10.785 7.77829 11.2361 7.5908 11.7068 7.5908L11.882 7.59974C12.2883 7.64004 12.6701 7.81984 12.9614 8.11112C13.2942 8.44396 13.4817 8.89502 13.4817 9.36572ZM15.7717 13.1064C15.7716 14.5019 14.7151 15.7207 13.3095 15.7207H3.23396C1.8284 15.7207 0.771879 14.5019 0.771729 13.1064V5.62504C0.771879 4.22951 1.8284 3.01073 3.23396 3.01073H13.3095C14.7151 3.01073 15.7716 4.22951 15.7717 5.62504V13.1064Z" fill="#EBE8E9"/>
</svg>
