<svg width="24" height="24" viewBox="0 0 24 24" fill="none" xmlns="http://www.w3.org/2000/svg">
<g clip-path="url(#clip0_153_1743)">
<path d="M17.5917 4.16444C15.5519 2.18845 12.9392 1.19995 9.75671 1.19995H3.34717V22.8H9.88445C13.2808 22.8 15.9249 21.7537 17.8158 19.6591C19.7066 17.5655 20.6525 14.9589 20.6525 11.8393C20.6525 8.71965 19.6326 6.14043 17.5917 4.16342V4.16444ZM9.21328 20.9791C7.42486 20.9791 5.97506 20.1356 5.97506 19.0954C5.97506 18.0551 7.42486 17.2116 9.21328 17.2116C11.0017 17.2116 12.4515 18.0551 12.4515 19.0954C12.4515 20.1356 11.0017 20.9791 9.21328 20.9791ZM9.21328 6.78827C7.42486 6.78827 5.97506 5.94475 5.97506 4.90455C5.97506 3.86434 7.42486 3.02082 9.21328 3.02082C11.0017 3.02082 12.4515 3.86434 12.4515 4.90455C12.4515 5.94475 11.0017 6.78827 9.21328 6.78827ZM16.9895 16.4898C16.0953 18.0389 14.6404 18.8723 13.7391 18.3522C12.8388 17.8321 12.8327 16.1552 13.7269 14.606C14.6211 13.0569 16.076 12.2235 16.9773 12.7436C17.8786 13.2637 17.8837 14.9406 16.9895 16.4898ZM16.9783 11.2573C16.077 11.7774 14.6222 10.943 13.7279 9.39487C12.8337 7.84572 12.8388 6.16881 13.7401 5.64871C14.6414 5.12861 16.0963 5.963 16.9905 7.51115C17.8847 9.0603 17.8796 10.7372 16.9783 11.2573Z" fill="#EF2B70"/>
</g>
<defs>
<clipPath id="clip0_153_1743">
<rect width="17.3053" height="21.6" fill="white" transform="translate(3.34717 1.19995)"/>
</clipPath>
</defs>
</svg>
